M48
INCH,TZ
T1C0.0098
T2C0.0118
T3C0.0157
T4C0.0197
T5C0.0236
T6C0.0591
%
G90
G05
T1
X48202Y-21663
X48780Y-29240
X48792Y-19596
X48819Y-22362
X48819Y-36417
X48819Y-43898
X48851Y-23415
X48989Y-34951
X48989Y-37904
X48989Y-41841
X48989Y-49715
X49265Y-19872
X49658Y-21722
X49855Y-19872
X50367Y-17234
X50367Y-19596
X50859Y-21762
X50859Y-36821
X50859Y-44301
X50918Y-29242
X50958Y-49715
X51076Y-33376
X51076Y-38179
X52336Y-17234
X52336Y-18415
X52788Y-19951
X52887Y-38337
X53005Y-22943
X53005Y-30423
X53005Y-37943
X53044Y-44163
X53044Y-45423
X53123Y-25797
X53221Y-35246
X53418Y-32884
X53418Y-40167
X53517Y-43120
X53969Y-19931
X54107Y-38199
X54246Y-20432
X54304Y-17234
X54304Y-18415
X54331Y-25492
X54619Y-22470
X54777Y-21565
X54777Y-22195
X54895Y-49715
X54920Y-28880
X54921Y-36417
X54921Y-43898
X54934Y-22470
X55092Y-22195
X55131Y-43533
X55160Y-28540
X55249Y-22470
X55328Y-42313
X55347Y-27057
X55406Y-22195
X55643Y-16919
X55879Y-21939
X56194Y-21683
X56469Y-21683
X56686Y-43278
X56760Y-27667
X56760Y-28340
X56765Y-21683
X56863Y-49715
X56978Y-18100
X56981Y-18888
X57078Y-42414
X57454Y-44163
X57532Y-19596
X57946Y-37116
X57946Y-44596
X58084Y-17116
X58084Y-17352
X58084Y-17589
X58320Y-17116
X58320Y-17352
X58320Y-17589
X58340Y-21762
X58389Y-29321
X58832Y-49715
X59186Y-16919
X59757Y-35187
X59973Y-43140
X60288Y-16919
X60485Y-22943
X60485Y-30423
X60525Y-37904
X60525Y-45423
X60551Y-25039
X60761Y-27785
X60800Y-18219
X61115Y-20710
X61706Y-20709
X61784Y-26447
X62402Y-24902
X62402Y-36417
X62402Y-43898
X62420Y-28880
X62651Y-36053
X62769Y-17234
X62769Y-49715
X62808Y-34793
X62946Y-22037
X63953Y-16961
X64104Y-18573
X64225Y-43533
X64245Y-35837
X64737Y-49715
X65367Y-19518
X65426Y-29636
X65426Y-37116
X65472Y-20748
X65525Y-44596
X65623Y-18909
X65820Y-21762
X65998Y-19494
X66214Y-18553
X66293Y-18909
X66489Y-21132
X66824Y-20796
X66863Y-16880
X66867Y-18608
X66901Y-20069
X67220Y-28220
X67296Y-20796
X67651Y-21152
X67847Y-17825
X67920Y-18132
X67926Y-19557
X67946Y-21014
X68005Y-22943
X68005Y-30423
X68005Y-37943
X68005Y-45463
X68084Y-16959
X68084Y-44163
X68110Y-25669
X68300Y-17825
X68474Y-17184
X68632Y-17685
X68635Y-16870
X68789Y-17178
X68851Y-20699
X68947Y-17707
X69068Y-16998
X69225Y-21762
X69291Y-23425
X69291Y-25000
X69291Y-26181
X69291Y-27362
X69345Y-17785
X69501Y-21014
X69658Y-17785
X69658Y-19675
X69737Y-42431
X69738Y-18438
X69740Y-19384
X69803Y-18081
X69803Y-21329
X69882Y-36417
X69900Y-29500
X70013Y-22549
X70079Y-25984
X70079Y-43898
X70104Y-17498
X70131Y-28652
X70308Y-16919
X70328Y-27313
X70328Y-42313
X70385Y-18063
X70406Y-19085
X70446Y-17521
X70446Y-36368
X70485Y-17156
X70485Y-22648
X70643Y-49715
X70958Y-21053
X71469Y-19045
X71509Y-19636
X71745Y-28294
X71824Y-43317
X72336Y-20817
X72493Y-44163
X72611Y-49715
X72906Y-44596
X73005Y-29636
X73005Y-37116
X73084Y-18376
X73281Y-20502
X73300Y-21762
X73474Y-19762
X73595Y-17234
X73753Y-19439
X73753Y-18258
X73950Y-20778
X74434Y-19248
X74517Y-18810
X74698Y-20187
X75157Y-18268
X75485Y-22943
X75485Y-30423
X75485Y-37943
X75485Y-45463
X75564Y-17234
X75682Y-25856
X77218Y-20266
X77532Y-17234
X77532Y-19203
X77532Y-31998
X77532Y-33967
X77532Y-35935
X77532Y-37904
X77532Y-39872
X77532Y-41841
X77532Y-43809
X77532Y-45778
X77532Y-47746
X77532Y-49715
X77611Y-29045
T2
X72638Y-18465
X74245Y-18297
T3
X62493Y-19557
X62651Y-19833
X62808Y-19557
X62966Y-19833
X63123Y-19557
X63281Y-19833
X71772Y-18661
X72205Y-18819
T4
G00X50869Y-21299
M15
G01X51066Y-21299
M16
G05
G00X50869Y-27402
M15
G01X51066Y-27402
M16
G05
G00X51853Y-21299
M15
G01X52050Y-21299
M16
G05
G00X52838Y-21299
M15
G01X53034Y-21299
M16
G05
G00X52838Y-27402
M15
G01X53034Y-27402
M16
G05
G00X54019Y-22224
M15
G01X53822Y-22224
M16
G05
G00X54019Y-29724
M15
G01X53822Y-29724
M16
G05
G00X54019Y-37224
M15
G01X53822Y-37224
M16
G05
G00X54019Y-44724
M15
G01X53822Y-44724
M16
G05
G00X61519Y-22224
M15
G01X61322Y-22224
M16
G05
G00X61519Y-29724
M15
G01X61322Y-29724
M16
G05
G00X61519Y-37224
M15
G01X61322Y-37224
M16
G05
G00X61519Y-44724
M15
G01X61322Y-44724
M16
G05
G00X69019Y-22224
M15
G01X68822Y-22224
M16
G05
G00X69019Y-29724
M15
G01X68822Y-29724
M16
G05
G00X69019Y-37224
M15
G01X68822Y-37224
M16
G05
G00X69019Y-44724
M15
G01X68822Y-44724
M16
G05
G00X76519Y-22224
M15
G01X76322Y-22224
M16
G05
G00X76519Y-29724
M15
G01X76322Y-29724
M16
G05
G00X76519Y-37224
M15
G01X76322Y-37224
M16
G05
G00X76519Y-44724
M15
G01X76322Y-44724
M16
G05
T5
G00X51580Y-17333
M15
G01X51580Y-17648
M16
G05
G00X51580Y-18919
M15
G01X51580Y-19352
M16
G05
G00X54981Y-17333
M15
G01X54981Y-17648
M16
G05
G00X54981Y-18919
M15
G01X54981Y-19352
M16
G05
T6
G00X48802Y-24409
M15
G01X48802Y-24094
M16
G05
G00X55101Y-24409
M15
G01X55101Y-24094
M16
G05
M30
