G04 #@! TF.GenerationSoftware,KiCad,Pcbnew,9.0.7+1*
G04 #@! TF.CreationDate,2026-06-22T12:10:04+00:00*
G04 #@! TF.ProjectId,Mad_RP2040,4d61645f-5250-4323-9034-302e6b696361,A*
G04 #@! TF.SameCoordinates,Original*
G04 #@! TF.FileFunction,Legend,Top*
G04 #@! TF.FilePolarity,Positive*
%FSLAX46Y46*%
G04 Gerber Fmt 4.6, Leading zero omitted, Abs format (unit mm)*
G04 Created by KiCad (PCBNEW 9.0.7+1) date 2026-06-22 12:10:04*
%MOMM*%
%LPD*%
G01*
G04 APERTURE LIST*
%ADD10C,0.150000*%
%ADD11C,0.100000*%
%ADD12C,0.120000*%
G04 APERTURE END LIST*
D10*
X172612680Y-44413095D02*
X172612680Y-44984523D01*
X171612680Y-44698809D02*
X172612680Y-44698809D01*
X172612680Y-45222619D02*
X171612680Y-45889285D01*
X172612680Y-45889285D02*
X171612680Y-45222619D01*
X166702319Y-45817857D02*
X166702319Y-46294047D01*
X166702319Y-46294047D02*
X165702319Y-46294047D01*
X166178509Y-45484523D02*
X166178509Y-45151190D01*
X166702319Y-45008333D02*
X166702319Y-45484523D01*
X166702319Y-45484523D02*
X165702319Y-45484523D01*
X165702319Y-45484523D02*
X165702319Y-45008333D01*
X166702319Y-44579761D02*
X165702319Y-44579761D01*
X165702319Y-44579761D02*
X165702319Y-44341666D01*
X165702319Y-44341666D02*
X165749938Y-44198809D01*
X165749938Y-44198809D02*
X165845176Y-44103571D01*
X165845176Y-44103571D02*
X165940414Y-44055952D01*
X165940414Y-44055952D02*
X166130890Y-44008333D01*
X166130890Y-44008333D02*
X166273747Y-44008333D01*
X166273747Y-44008333D02*
X166464223Y-44055952D01*
X166464223Y-44055952D02*
X166559461Y-44103571D01*
X166559461Y-44103571D02*
X166654700Y-44198809D01*
X166654700Y-44198809D02*
X166702319Y-44341666D01*
X166702319Y-44341666D02*
X166702319Y-44579761D01*
D11*
X189715833Y-47789895D02*
X189715833Y-48361323D01*
X189715833Y-48361323D02*
X189677738Y-48475609D01*
X189677738Y-48475609D02*
X189601547Y-48551800D01*
X189601547Y-48551800D02*
X189487262Y-48589895D01*
X189487262Y-48589895D02*
X189411071Y-48589895D01*
X190058690Y-47866085D02*
X190096786Y-47827990D01*
X190096786Y-47827990D02*
X190172976Y-47789895D01*
X190172976Y-47789895D02*
X190363452Y-47789895D01*
X190363452Y-47789895D02*
X190439643Y-47827990D01*
X190439643Y-47827990D02*
X190477738Y-47866085D01*
X190477738Y-47866085D02*
X190515833Y-47942276D01*
X190515833Y-47942276D02*
X190515833Y-48018466D01*
X190515833Y-48018466D02*
X190477738Y-48132752D01*
X190477738Y-48132752D02*
X190020595Y-48589895D01*
X190020595Y-48589895D02*
X190515833Y-48589895D01*
D12*
X169332500Y-45875000D02*
X169332500Y-44475000D01*
X170032500Y-43775000D02*
X170632500Y-43775000D01*
X170632500Y-46575000D02*
X170032500Y-46575000D01*
X171332500Y-44475000D02*
X171332500Y-45875000D01*
X169332500Y-44475000D02*
G75*
G02*
X170032500Y-43775000I700000J0D01*
G01*
X170032500Y-46575000D02*
G75*
G02*
X169332500Y-45875000I-1J699999D01*
G01*
X170632500Y-43775000D02*
G75*
G02*
X171332500Y-44475000I0J-700000D01*
G01*
X171332500Y-45875000D02*
G75*
G02*
X170632500Y-46575000I-699999J-1D01*
G01*
X182522500Y-43015000D02*
X182522500Y-43565000D01*
X182522500Y-45785000D02*
X182522500Y-47535000D01*
X182522500Y-47535000D02*
X183972500Y-47535000D01*
X189092500Y-47535000D02*
X189092500Y-48425000D01*
X190542500Y-43015000D02*
X182522500Y-43015000D01*
X190542500Y-43565000D02*
X190542500Y-43015000D01*
X190542500Y-45785000D02*
X190542500Y-47535000D01*
X190542500Y-47535000D02*
X189092500Y-47535000D01*
X166932500Y-45875000D02*
X166932500Y-44475000D01*
X167632500Y-43775000D02*
X168232500Y-43775000D01*
X168232500Y-46575000D02*
X167632500Y-46575000D01*
X168932500Y-44475000D02*
X168932500Y-45875000D01*
X166932500Y-44475000D02*
G75*
G02*
X167632500Y-43775000I699999J1D01*
G01*
X167632500Y-46575000D02*
G75*
G02*
X166932500Y-45875000I0J700000D01*
G01*
X168232500Y-43775000D02*
G75*
G02*
X168932500Y-44475000I1J-699999D01*
G01*
X168932500Y-45875000D02*
G75*
G02*
X168232500Y-46575000I-700000J0D01*
G01*
M02*
