M48
INCH,TZ
T1C0.0256
T2C0.0748
T3C0.1181
T4C0.1260
T5C0.1969
%
G90
G05
T1
X52143Y-18939
X54418Y-18939
T2
X49786Y-24252
X49786Y-31752
X49786Y-39252
X49786Y-46752
X54117Y-24252
X54117Y-31752
X54117Y-39252
X54117Y-46752
X57286Y-24252
X57286Y-31752
X57286Y-39252
X57286Y-46752
X61617Y-24252
X61617Y-31752
X61617Y-39252
X61617Y-46752
X64786Y-24252
X64786Y-31752
X64786Y-39252
X64786Y-46752
X69117Y-24252
X69117Y-31752
X69117Y-39252
X69117Y-46752
X72286Y-24252
X72286Y-31752
X72286Y-39252
X72286Y-46752
X76617Y-24252
X76617Y-31752
X76617Y-39252
X76617Y-46752
T3
X49983Y-25709
X49983Y-33209
X49983Y-40709
X49983Y-48209
X51952Y-26575
X51952Y-34075
X51952Y-41575
X51952Y-49075
X57483Y-25709
X57483Y-33209
X57483Y-40709
X57483Y-48209
X59452Y-26575
X59452Y-34075
X59452Y-41575
X59452Y-49075
X64983Y-25709
X64983Y-33209
X64983Y-40709
X64983Y-48209
X66952Y-26575
X66952Y-34075
X66952Y-41575
X66952Y-49075
X72483Y-25709
X72483Y-33209
X72483Y-40709
X72483Y-48209
X74452Y-26575
X74452Y-34075
X74452Y-41575
X74452Y-49075
T4
X50367Y-18258
X55702Y-35502
X63202Y-28002
X63202Y-43002
X70702Y-35502
X76036Y-18258
T5
X51952Y-24252
X51952Y-31752
X51952Y-39252
X51952Y-46752
X59452Y-24252
X59452Y-31752
X59452Y-39252
X59452Y-46752
X66952Y-24252
X66952Y-31752
X66952Y-39252
X66952Y-46752
X74452Y-24252
X74452Y-31752
X74452Y-39252
X74452Y-46752
M30
