G04 #@! TF.GenerationSoftware,KiCad,Pcbnew,9.0.7+1*
G04 #@! TF.CreationDate,2026-06-22T12:10:04+00:00*
G04 #@! TF.ProjectId,Mad_RP2040,4d61645f-5250-4323-9034-302e6b696361,A*
G04 #@! TF.SameCoordinates,Original*
G04 #@! TF.FileFunction,Paste,Top*
G04 #@! TF.FilePolarity,Positive*
%FSLAX46Y46*%
G04 Gerber Fmt 4.6, Leading zero omitted, Abs format (unit mm)*
G04 Created by KiCad (PCBNEW 9.0.7+1) date 2026-06-22 12:10:04*
%MOMM*%
%LPD*%
G01*
G04 APERTURE LIST*
G04 APERTURE END LIST*
G36*
G01*
X188784500Y-47401000D02*
X188784500Y-48199000D01*
G75*
G02*
X188658500Y-48325000I-126000J0D01*
G01*
X188406500Y-48325000D01*
G75*
G02*
X188280500Y-48199000I0J126000D01*
G01*
X188280500Y-47401000D01*
G75*
G02*
X188406500Y-47275000I126000J0D01*
G01*
X188658500Y-47275000D01*
G75*
G02*
X188784500Y-47401000I0J-126000D01*
G01*
G37*
G36*
G01*
X187784500Y-47401000D02*
X187784500Y-48199000D01*
G75*
G02*
X187658500Y-48325000I-126000J0D01*
G01*
X187406500Y-48325000D01*
G75*
G02*
X187280500Y-48199000I0J126000D01*
G01*
X187280500Y-47401000D01*
G75*
G02*
X187406500Y-47275000I126000J0D01*
G01*
X187658500Y-47275000D01*
G75*
G02*
X187784500Y-47401000I0J-126000D01*
G01*
G37*
G36*
G01*
X186784500Y-47401000D02*
X186784500Y-48199000D01*
G75*
G02*
X186658500Y-48325000I-126000J0D01*
G01*
X186406500Y-48325000D01*
G75*
G02*
X186280500Y-48199000I0J126000D01*
G01*
X186280500Y-47401000D01*
G75*
G02*
X186406500Y-47275000I126000J0D01*
G01*
X186658500Y-47275000D01*
G75*
G02*
X186784500Y-47401000I0J-126000D01*
G01*
G37*
G36*
G01*
X185784500Y-47401000D02*
X185784500Y-48199000D01*
G75*
G02*
X185658500Y-48325000I-126000J0D01*
G01*
X185406500Y-48325000D01*
G75*
G02*
X185280500Y-48199000I0J126000D01*
G01*
X185280500Y-47401000D01*
G75*
G02*
X185406500Y-47275000I126000J0D01*
G01*
X185658500Y-47275000D01*
G75*
G02*
X185784500Y-47401000I0J-126000D01*
G01*
G37*
G36*
G01*
X184784500Y-47401000D02*
X184784500Y-48199000D01*
G75*
G02*
X184658500Y-48325000I-126000J0D01*
G01*
X184406500Y-48325000D01*
G75*
G02*
X184280500Y-48199000I0J126000D01*
G01*
X184280500Y-47401000D01*
G75*
G02*
X184406500Y-47275000I126000J0D01*
G01*
X184658500Y-47275000D01*
G75*
G02*
X184784500Y-47401000I0J-126000D01*
G01*
G37*
G36*
G01*
X190360500Y-44150000D02*
X190360500Y-45200000D01*
G75*
G02*
X190171500Y-45389000I-189000J0D01*
G01*
X189793500Y-45389000D01*
G75*
G02*
X189604500Y-45200000I0J189000D01*
G01*
X189604500Y-44150000D01*
G75*
G02*
X189793500Y-43961000I189000J0D01*
G01*
X190171500Y-43961000D01*
G75*
G02*
X190360500Y-44150000I0J-189000D01*
G01*
G37*
G36*
G01*
X183460500Y-44150000D02*
X183460500Y-45200000D01*
G75*
G02*
X183271500Y-45389000I-189000J0D01*
G01*
X182893500Y-45389000D01*
G75*
G02*
X182704500Y-45200000I0J189000D01*
G01*
X182704500Y-44150000D01*
G75*
G02*
X182893500Y-43961000I189000J0D01*
G01*
X183271500Y-43961000D01*
G75*
G02*
X183460500Y-44150000I0J-189000D01*
G01*
G37*
M02*
