G04 #@! TF.GenerationSoftware,KiCad,Pcbnew,9.0.7+1*
G04 #@! TF.CreationDate,2026-06-22T11:59:47+00:00*
G04 #@! TF.ProjectId,Mad_RP2040,4d61645f-5250-4323-9034-302e6b696361,A*
G04 #@! TF.SameCoordinates,Original*
G04 #@! TF.FileFunction,Soldermask,Top*
G04 #@! TF.FilePolarity,Negative*
%FSLAX46Y46*%
G04 Gerber Fmt 4.6, Leading zero omitted, Abs format (unit mm)*
G04 Created by KiCad (PCBNEW 9.0.7+1) date 2026-06-22 11:59:47*
%MOMM*%
%LPD*%
G01*
G04 APERTURE LIST*
G04 APERTURE END LIST*
G36*
X132307965Y-123190210D02*
G01*
X132532011Y-123263007D01*
X132741911Y-123369957D01*
X132932497Y-123508425D01*
X133099075Y-123675003D01*
X133237543Y-123865589D01*
X133344493Y-124075489D01*
X133417290Y-124299535D01*
X133454142Y-124532212D01*
X133454142Y-124767788D01*
X133417290Y-125000465D01*
X133344493Y-125224511D01*
X133237543Y-125434411D01*
X133099075Y-125624997D01*
X132932497Y-125791575D01*
X132741911Y-125930043D01*
X132532011Y-126036993D01*
X132307965Y-126109790D01*
X132075288Y-126146642D01*
X131839712Y-126146642D01*
X131607035Y-126109790D01*
X131382989Y-126036993D01*
X131173089Y-125930043D01*
X130982503Y-125791575D01*
X130815925Y-125624997D01*
X130677457Y-125434411D01*
X130570507Y-125224511D01*
X130497710Y-125000465D01*
X130460858Y-124767788D01*
X130460858Y-124532212D01*
X130497710Y-124299535D01*
X130570507Y-124075489D01*
X130677457Y-123865589D01*
X130815925Y-123675003D01*
X130982503Y-123508425D01*
X131173089Y-123369957D01*
X131382989Y-123263007D01*
X131607035Y-123190210D01*
X131839712Y-123153358D01*
X132075288Y-123153358D01*
X132307965Y-123190210D01*
G37*
G36*
X151357965Y-123190210D02*
G01*
X151582011Y-123263007D01*
X151791911Y-123369957D01*
X151982497Y-123508425D01*
X152149075Y-123675003D01*
X152287543Y-123865589D01*
X152394493Y-124075489D01*
X152467290Y-124299535D01*
X152504142Y-124532212D01*
X152504142Y-124767788D01*
X152467290Y-125000465D01*
X152394493Y-125224511D01*
X152287543Y-125434411D01*
X152149075Y-125624997D01*
X151982497Y-125791575D01*
X151791911Y-125930043D01*
X151582011Y-126036993D01*
X151357965Y-126109790D01*
X151125288Y-126146642D01*
X150889712Y-126146642D01*
X150657035Y-126109790D01*
X150432989Y-126036993D01*
X150223089Y-125930043D01*
X150032503Y-125791575D01*
X149865925Y-125624997D01*
X149727457Y-125434411D01*
X149620507Y-125224511D01*
X149547710Y-125000465D01*
X149510858Y-124767788D01*
X149510858Y-124532212D01*
X149547710Y-124299535D01*
X149620507Y-124075489D01*
X149727457Y-123865589D01*
X149865925Y-123675003D01*
X150032503Y-123508425D01*
X150223089Y-123369957D01*
X150432989Y-123263007D01*
X150657035Y-123190210D01*
X150889712Y-123153358D01*
X151125288Y-123153358D01*
X151357965Y-123190210D01*
G37*
G36*
X170407965Y-123190210D02*
G01*
X170632011Y-123263007D01*
X170841911Y-123369957D01*
X171032497Y-123508425D01*
X171199075Y-123675003D01*
X171337543Y-123865589D01*
X171444493Y-124075489D01*
X171517290Y-124299535D01*
X171554142Y-124532212D01*
X171554142Y-124767788D01*
X171517290Y-125000465D01*
X171444493Y-125224511D01*
X171337543Y-125434411D01*
X171199075Y-125624997D01*
X171032497Y-125791575D01*
X170841911Y-125930043D01*
X170632011Y-126036993D01*
X170407965Y-126109790D01*
X170175288Y-126146642D01*
X169939712Y-126146642D01*
X169707035Y-126109790D01*
X169482989Y-126036993D01*
X169273089Y-125930043D01*
X169082503Y-125791575D01*
X168915925Y-125624997D01*
X168777457Y-125434411D01*
X168670507Y-125224511D01*
X168597710Y-125000465D01*
X168560858Y-124767788D01*
X168560858Y-124532212D01*
X168597710Y-124299535D01*
X168670507Y-124075489D01*
X168777457Y-123865589D01*
X168915925Y-123675003D01*
X169082503Y-123508425D01*
X169273089Y-123369957D01*
X169482989Y-123263007D01*
X169707035Y-123190210D01*
X169939712Y-123153358D01*
X170175288Y-123153358D01*
X170407965Y-123190210D01*
G37*
G36*
X189457965Y-123190210D02*
G01*
X189682011Y-123263007D01*
X189891911Y-123369957D01*
X190082497Y-123508425D01*
X190249075Y-123675003D01*
X190387543Y-123865589D01*
X190494493Y-124075489D01*
X190567290Y-124299535D01*
X190604142Y-124532212D01*
X190604142Y-124767788D01*
X190567290Y-125000465D01*
X190494493Y-125224511D01*
X190387543Y-125434411D01*
X190249075Y-125624997D01*
X190082497Y-125791575D01*
X189891911Y-125930043D01*
X189682011Y-126036993D01*
X189457965Y-126109790D01*
X189225288Y-126146642D01*
X188989712Y-126146642D01*
X188757035Y-126109790D01*
X188532989Y-126036993D01*
X188323089Y-125930043D01*
X188132503Y-125791575D01*
X187965925Y-125624997D01*
X187827457Y-125434411D01*
X187720507Y-125224511D01*
X187647710Y-125000465D01*
X187610858Y-124767788D01*
X187610858Y-124532212D01*
X187647710Y-124299535D01*
X187720507Y-124075489D01*
X187827457Y-123865589D01*
X187965925Y-123675003D01*
X188132503Y-123508425D01*
X188323089Y-123369957D01*
X188532989Y-123263007D01*
X188757035Y-123190210D01*
X188989712Y-123153358D01*
X189225288Y-123153358D01*
X189457965Y-123190210D01*
G37*
G36*
X127307965Y-120990210D02*
G01*
X127532011Y-121063007D01*
X127741911Y-121169957D01*
X127932497Y-121308425D01*
X128099075Y-121475003D01*
X128237543Y-121665589D01*
X128344493Y-121875489D01*
X128417290Y-122099535D01*
X128454142Y-122332212D01*
X128454142Y-122567788D01*
X128417290Y-122800465D01*
X128344493Y-123024511D01*
X128237543Y-123234411D01*
X128099075Y-123424997D01*
X127932497Y-123591575D01*
X127741911Y-123730043D01*
X127532011Y-123836993D01*
X127307965Y-123909790D01*
X127075288Y-123946642D01*
X126839712Y-123946642D01*
X126607035Y-123909790D01*
X126382989Y-123836993D01*
X126173089Y-123730043D01*
X125982503Y-123591575D01*
X125815925Y-123424997D01*
X125677457Y-123234411D01*
X125570507Y-123024511D01*
X125497710Y-122800465D01*
X125460858Y-122567788D01*
X125460858Y-122332212D01*
X125497710Y-122099535D01*
X125570507Y-121875489D01*
X125677457Y-121665589D01*
X125815925Y-121475003D01*
X125982503Y-121308425D01*
X126173089Y-121169957D01*
X126382989Y-121063007D01*
X126607035Y-120990210D01*
X126839712Y-120953358D01*
X127075288Y-120953358D01*
X127307965Y-120990210D01*
G37*
G36*
X146357965Y-120990210D02*
G01*
X146582011Y-121063007D01*
X146791911Y-121169957D01*
X146982497Y-121308425D01*
X147149075Y-121475003D01*
X147287543Y-121665589D01*
X147394493Y-121875489D01*
X147467290Y-122099535D01*
X147504142Y-122332212D01*
X147504142Y-122567788D01*
X147467290Y-122800465D01*
X147394493Y-123024511D01*
X147287543Y-123234411D01*
X147149075Y-123424997D01*
X146982497Y-123591575D01*
X146791911Y-123730043D01*
X146582011Y-123836993D01*
X146357965Y-123909790D01*
X146125288Y-123946642D01*
X145889712Y-123946642D01*
X145657035Y-123909790D01*
X145432989Y-123836993D01*
X145223089Y-123730043D01*
X145032503Y-123591575D01*
X144865925Y-123424997D01*
X144727457Y-123234411D01*
X144620507Y-123024511D01*
X144547710Y-122800465D01*
X144510858Y-122567788D01*
X144510858Y-122332212D01*
X144547710Y-122099535D01*
X144620507Y-121875489D01*
X144727457Y-121665589D01*
X144865925Y-121475003D01*
X145032503Y-121308425D01*
X145223089Y-121169957D01*
X145432989Y-121063007D01*
X145657035Y-120990210D01*
X145889712Y-120953358D01*
X146125288Y-120953358D01*
X146357965Y-120990210D01*
G37*
G36*
X165407965Y-120990210D02*
G01*
X165632011Y-121063007D01*
X165841911Y-121169957D01*
X166032497Y-121308425D01*
X166199075Y-121475003D01*
X166337543Y-121665589D01*
X166444493Y-121875489D01*
X166517290Y-122099535D01*
X166554142Y-122332212D01*
X166554142Y-122567788D01*
X166517290Y-122800465D01*
X166444493Y-123024511D01*
X166337543Y-123234411D01*
X166199075Y-123424997D01*
X166032497Y-123591575D01*
X165841911Y-123730043D01*
X165632011Y-123836993D01*
X165407965Y-123909790D01*
X165175288Y-123946642D01*
X164939712Y-123946642D01*
X164707035Y-123909790D01*
X164482989Y-123836993D01*
X164273089Y-123730043D01*
X164082503Y-123591575D01*
X163915925Y-123424997D01*
X163777457Y-123234411D01*
X163670507Y-123024511D01*
X163597710Y-122800465D01*
X163560858Y-122567788D01*
X163560858Y-122332212D01*
X163597710Y-122099535D01*
X163670507Y-121875489D01*
X163777457Y-121665589D01*
X163915925Y-121475003D01*
X164082503Y-121308425D01*
X164273089Y-121169957D01*
X164482989Y-121063007D01*
X164707035Y-120990210D01*
X164939712Y-120953358D01*
X165175288Y-120953358D01*
X165407965Y-120990210D01*
G37*
G36*
X184457965Y-120990210D02*
G01*
X184682011Y-121063007D01*
X184891911Y-121169957D01*
X185082497Y-121308425D01*
X185249075Y-121475003D01*
X185387543Y-121665589D01*
X185494493Y-121875489D01*
X185567290Y-122099535D01*
X185604142Y-122332212D01*
X185604142Y-122567788D01*
X185567290Y-122800465D01*
X185494493Y-123024511D01*
X185387543Y-123234411D01*
X185249075Y-123424997D01*
X185082497Y-123591575D01*
X184891911Y-123730043D01*
X184682011Y-123836993D01*
X184457965Y-123909790D01*
X184225288Y-123946642D01*
X183989712Y-123946642D01*
X183757035Y-123909790D01*
X183532989Y-123836993D01*
X183323089Y-123730043D01*
X183132503Y-123591575D01*
X182965925Y-123424997D01*
X182827457Y-123234411D01*
X182720507Y-123024511D01*
X182647710Y-122800465D01*
X182610858Y-122567788D01*
X182610858Y-122332212D01*
X182647710Y-122099535D01*
X182720507Y-121875489D01*
X182827457Y-121665589D01*
X182965925Y-121475003D01*
X183132503Y-121308425D01*
X183323089Y-121169957D01*
X183532989Y-121063007D01*
X183757035Y-120990210D01*
X183989712Y-120953358D01*
X184225288Y-120953358D01*
X184457965Y-120990210D01*
G37*
G36*
X132376478Y-116284070D02*
G01*
X132649940Y-116346486D01*
X132914695Y-116439128D01*
X133167412Y-116560830D01*
X133404913Y-116710062D01*
X133624213Y-116884948D01*
X133822552Y-117083287D01*
X133997438Y-117302587D01*
X134146670Y-117540088D01*
X134268372Y-117792805D01*
X134361014Y-118057560D01*
X134423430Y-118331022D01*
X134454835Y-118609753D01*
X134454835Y-118890247D01*
X134423430Y-119168978D01*
X134361014Y-119442440D01*
X134268372Y-119707195D01*
X134146670Y-119959912D01*
X133997438Y-120197413D01*
X133822552Y-120416713D01*
X133624213Y-120615052D01*
X133404913Y-120789938D01*
X133167412Y-120939170D01*
X132914695Y-121060872D01*
X132649940Y-121153514D01*
X132376478Y-121215930D01*
X132097747Y-121247335D01*
X131817253Y-121247335D01*
X131538522Y-121215930D01*
X131265060Y-121153514D01*
X131000305Y-121060872D01*
X130747588Y-120939170D01*
X130510087Y-120789938D01*
X130290787Y-120615052D01*
X130092448Y-120416713D01*
X129917562Y-120197413D01*
X129768330Y-119959912D01*
X129646628Y-119707195D01*
X129553986Y-119442440D01*
X129491570Y-119168978D01*
X129460165Y-118890247D01*
X129460165Y-118609753D01*
X129491570Y-118331022D01*
X129553986Y-118057560D01*
X129646628Y-117792805D01*
X129768330Y-117540088D01*
X129917562Y-117302587D01*
X130092448Y-117083287D01*
X130290787Y-116884948D01*
X130510087Y-116710062D01*
X130747588Y-116560830D01*
X131000305Y-116439128D01*
X131265060Y-116346486D01*
X131538522Y-116284070D01*
X131817253Y-116252665D01*
X132097747Y-116252665D01*
X132376478Y-116284070D01*
G37*
G36*
X151426478Y-116284070D02*
G01*
X151699940Y-116346486D01*
X151964695Y-116439128D01*
X152217412Y-116560830D01*
X152454913Y-116710062D01*
X152674213Y-116884948D01*
X152872552Y-117083287D01*
X153047438Y-117302587D01*
X153196670Y-117540088D01*
X153318372Y-117792805D01*
X153411014Y-118057560D01*
X153473430Y-118331022D01*
X153504835Y-118609753D01*
X153504835Y-118890247D01*
X153473430Y-119168978D01*
X153411014Y-119442440D01*
X153318372Y-119707195D01*
X153196670Y-119959912D01*
X153047438Y-120197413D01*
X152872552Y-120416713D01*
X152674213Y-120615052D01*
X152454913Y-120789938D01*
X152217412Y-120939170D01*
X151964695Y-121060872D01*
X151699940Y-121153514D01*
X151426478Y-121215930D01*
X151147747Y-121247335D01*
X150867253Y-121247335D01*
X150588522Y-121215930D01*
X150315060Y-121153514D01*
X150050305Y-121060872D01*
X149797588Y-120939170D01*
X149560087Y-120789938D01*
X149340787Y-120615052D01*
X149142448Y-120416713D01*
X148967562Y-120197413D01*
X148818330Y-119959912D01*
X148696628Y-119707195D01*
X148603986Y-119442440D01*
X148541570Y-119168978D01*
X148510165Y-118890247D01*
X148510165Y-118609753D01*
X148541570Y-118331022D01*
X148603986Y-118057560D01*
X148696628Y-117792805D01*
X148818330Y-117540088D01*
X148967562Y-117302587D01*
X149142448Y-117083287D01*
X149340787Y-116884948D01*
X149560087Y-116710062D01*
X149797588Y-116560830D01*
X150050305Y-116439128D01*
X150315060Y-116346486D01*
X150588522Y-116284070D01*
X150867253Y-116252665D01*
X151147747Y-116252665D01*
X151426478Y-116284070D01*
G37*
G36*
X170476478Y-116284070D02*
G01*
X170749940Y-116346486D01*
X171014695Y-116439128D01*
X171267412Y-116560830D01*
X171504913Y-116710062D01*
X171724213Y-116884948D01*
X171922552Y-117083287D01*
X172097438Y-117302587D01*
X172246670Y-117540088D01*
X172368372Y-117792805D01*
X172461014Y-118057560D01*
X172523430Y-118331022D01*
X172554835Y-118609753D01*
X172554835Y-118890247D01*
X172523430Y-119168978D01*
X172461014Y-119442440D01*
X172368372Y-119707195D01*
X172246670Y-119959912D01*
X172097438Y-120197413D01*
X171922552Y-120416713D01*
X171724213Y-120615052D01*
X171504913Y-120789938D01*
X171267412Y-120939170D01*
X171014695Y-121060872D01*
X170749940Y-121153514D01*
X170476478Y-121215930D01*
X170197747Y-121247335D01*
X169917253Y-121247335D01*
X169638522Y-121215930D01*
X169365060Y-121153514D01*
X169100305Y-121060872D01*
X168847588Y-120939170D01*
X168610087Y-120789938D01*
X168390787Y-120615052D01*
X168192448Y-120416713D01*
X168017562Y-120197413D01*
X167868330Y-119959912D01*
X167746628Y-119707195D01*
X167653986Y-119442440D01*
X167591570Y-119168978D01*
X167560165Y-118890247D01*
X167560165Y-118609753D01*
X167591570Y-118331022D01*
X167653986Y-118057560D01*
X167746628Y-117792805D01*
X167868330Y-117540088D01*
X168017562Y-117302587D01*
X168192448Y-117083287D01*
X168390787Y-116884948D01*
X168610087Y-116710062D01*
X168847588Y-116560830D01*
X169100305Y-116439128D01*
X169365060Y-116346486D01*
X169638522Y-116284070D01*
X169917253Y-116252665D01*
X170197747Y-116252665D01*
X170476478Y-116284070D01*
G37*
G36*
X189526478Y-116284070D02*
G01*
X189799940Y-116346486D01*
X190064695Y-116439128D01*
X190317412Y-116560830D01*
X190554913Y-116710062D01*
X190774213Y-116884948D01*
X190972552Y-117083287D01*
X191147438Y-117302587D01*
X191296670Y-117540088D01*
X191418372Y-117792805D01*
X191511014Y-118057560D01*
X191573430Y-118331022D01*
X191604835Y-118609753D01*
X191604835Y-118890247D01*
X191573430Y-119168978D01*
X191511014Y-119442440D01*
X191418372Y-119707195D01*
X191296670Y-119959912D01*
X191147438Y-120197413D01*
X190972552Y-120416713D01*
X190774213Y-120615052D01*
X190554913Y-120789938D01*
X190317412Y-120939170D01*
X190064695Y-121060872D01*
X189799940Y-121153514D01*
X189526478Y-121215930D01*
X189247747Y-121247335D01*
X188967253Y-121247335D01*
X188688522Y-121215930D01*
X188415060Y-121153514D01*
X188150305Y-121060872D01*
X187897588Y-120939170D01*
X187660087Y-120789938D01*
X187440787Y-120615052D01*
X187242448Y-120416713D01*
X187067562Y-120197413D01*
X186918330Y-119959912D01*
X186796628Y-119707195D01*
X186703986Y-119442440D01*
X186641570Y-119168978D01*
X186610165Y-118890247D01*
X186610165Y-118609753D01*
X186641570Y-118331022D01*
X186703986Y-118057560D01*
X186796628Y-117792805D01*
X186918330Y-117540088D01*
X187067562Y-117302587D01*
X187242448Y-117083287D01*
X187440787Y-116884948D01*
X187660087Y-116710062D01*
X187897588Y-116560830D01*
X188150305Y-116439128D01*
X188415060Y-116346486D01*
X188688522Y-116284070D01*
X188967253Y-116252665D01*
X189247747Y-116252665D01*
X189526478Y-116284070D01*
G37*
G36*
X126733639Y-117839691D02*
G01*
X126905926Y-117911055D01*
X127060979Y-118014658D01*
X127192842Y-118146521D01*
X127296445Y-118301574D01*
X127367809Y-118473861D01*
X127404189Y-118656759D01*
X127404189Y-118843241D01*
X127367809Y-119026139D01*
X127296445Y-119198426D01*
X127192842Y-119353479D01*
X127060979Y-119485342D01*
X126905926Y-119588945D01*
X126733639Y-119660309D01*
X126550741Y-119696689D01*
X126364259Y-119696689D01*
X126181361Y-119660309D01*
X126009074Y-119588945D01*
X125854021Y-119485342D01*
X125722158Y-119353479D01*
X125618555Y-119198426D01*
X125547191Y-119026139D01*
X125510811Y-118843241D01*
X125510811Y-118656759D01*
X125547191Y-118473861D01*
X125618555Y-118301574D01*
X125722158Y-118146521D01*
X125854021Y-118014658D01*
X126009074Y-117911055D01*
X126181361Y-117839691D01*
X126364259Y-117803311D01*
X126550741Y-117803311D01*
X126733639Y-117839691D01*
G37*
G36*
X137733639Y-117839691D02*
G01*
X137905926Y-117911055D01*
X138060979Y-118014658D01*
X138192842Y-118146521D01*
X138296445Y-118301574D01*
X138367809Y-118473861D01*
X138404189Y-118656759D01*
X138404189Y-118843241D01*
X138367809Y-119026139D01*
X138296445Y-119198426D01*
X138192842Y-119353479D01*
X138060979Y-119485342D01*
X137905926Y-119588945D01*
X137733639Y-119660309D01*
X137550741Y-119696689D01*
X137364259Y-119696689D01*
X137181361Y-119660309D01*
X137009074Y-119588945D01*
X136854021Y-119485342D01*
X136722158Y-119353479D01*
X136618555Y-119198426D01*
X136547191Y-119026139D01*
X136510811Y-118843241D01*
X136510811Y-118656759D01*
X136547191Y-118473861D01*
X136618555Y-118301574D01*
X136722158Y-118146521D01*
X136854021Y-118014658D01*
X137009074Y-117911055D01*
X137181361Y-117839691D01*
X137364259Y-117803311D01*
X137550741Y-117803311D01*
X137733639Y-117839691D01*
G37*
G36*
X145783639Y-117839691D02*
G01*
X145955926Y-117911055D01*
X146110979Y-118014658D01*
X146242842Y-118146521D01*
X146346445Y-118301574D01*
X146417809Y-118473861D01*
X146454189Y-118656759D01*
X146454189Y-118843241D01*
X146417809Y-119026139D01*
X146346445Y-119198426D01*
X146242842Y-119353479D01*
X146110979Y-119485342D01*
X145955926Y-119588945D01*
X145783639Y-119660309D01*
X145600741Y-119696689D01*
X145414259Y-119696689D01*
X145231361Y-119660309D01*
X145059074Y-119588945D01*
X144904021Y-119485342D01*
X144772158Y-119353479D01*
X144668555Y-119198426D01*
X144597191Y-119026139D01*
X144560811Y-118843241D01*
X144560811Y-118656759D01*
X144597191Y-118473861D01*
X144668555Y-118301574D01*
X144772158Y-118146521D01*
X144904021Y-118014658D01*
X145059074Y-117911055D01*
X145231361Y-117839691D01*
X145414259Y-117803311D01*
X145600741Y-117803311D01*
X145783639Y-117839691D01*
G37*
G36*
X156783639Y-117839691D02*
G01*
X156955926Y-117911055D01*
X157110979Y-118014658D01*
X157242842Y-118146521D01*
X157346445Y-118301574D01*
X157417809Y-118473861D01*
X157454189Y-118656759D01*
X157454189Y-118843241D01*
X157417809Y-119026139D01*
X157346445Y-119198426D01*
X157242842Y-119353479D01*
X157110979Y-119485342D01*
X156955926Y-119588945D01*
X156783639Y-119660309D01*
X156600741Y-119696689D01*
X156414259Y-119696689D01*
X156231361Y-119660309D01*
X156059074Y-119588945D01*
X155904021Y-119485342D01*
X155772158Y-119353479D01*
X155668555Y-119198426D01*
X155597191Y-119026139D01*
X155560811Y-118843241D01*
X155560811Y-118656759D01*
X155597191Y-118473861D01*
X155668555Y-118301574D01*
X155772158Y-118146521D01*
X155904021Y-118014658D01*
X156059074Y-117911055D01*
X156231361Y-117839691D01*
X156414259Y-117803311D01*
X156600741Y-117803311D01*
X156783639Y-117839691D01*
G37*
G36*
X164833639Y-117839691D02*
G01*
X165005926Y-117911055D01*
X165160979Y-118014658D01*
X165292842Y-118146521D01*
X165396445Y-118301574D01*
X165467809Y-118473861D01*
X165504189Y-118656759D01*
X165504189Y-118843241D01*
X165467809Y-119026139D01*
X165396445Y-119198426D01*
X165292842Y-119353479D01*
X165160979Y-119485342D01*
X165005926Y-119588945D01*
X164833639Y-119660309D01*
X164650741Y-119696689D01*
X164464259Y-119696689D01*
X164281361Y-119660309D01*
X164109074Y-119588945D01*
X163954021Y-119485342D01*
X163822158Y-119353479D01*
X163718555Y-119198426D01*
X163647191Y-119026139D01*
X163610811Y-118843241D01*
X163610811Y-118656759D01*
X163647191Y-118473861D01*
X163718555Y-118301574D01*
X163822158Y-118146521D01*
X163954021Y-118014658D01*
X164109074Y-117911055D01*
X164281361Y-117839691D01*
X164464259Y-117803311D01*
X164650741Y-117803311D01*
X164833639Y-117839691D01*
G37*
G36*
X175833639Y-117839691D02*
G01*
X176005926Y-117911055D01*
X176160979Y-118014658D01*
X176292842Y-118146521D01*
X176396445Y-118301574D01*
X176467809Y-118473861D01*
X176504189Y-118656759D01*
X176504189Y-118843241D01*
X176467809Y-119026139D01*
X176396445Y-119198426D01*
X176292842Y-119353479D01*
X176160979Y-119485342D01*
X176005926Y-119588945D01*
X175833639Y-119660309D01*
X175650741Y-119696689D01*
X175464259Y-119696689D01*
X175281361Y-119660309D01*
X175109074Y-119588945D01*
X174954021Y-119485342D01*
X174822158Y-119353479D01*
X174718555Y-119198426D01*
X174647191Y-119026139D01*
X174610811Y-118843241D01*
X174610811Y-118656759D01*
X174647191Y-118473861D01*
X174718555Y-118301574D01*
X174822158Y-118146521D01*
X174954021Y-118014658D01*
X175109074Y-117911055D01*
X175281361Y-117839691D01*
X175464259Y-117803311D01*
X175650741Y-117803311D01*
X175833639Y-117839691D01*
G37*
G36*
X183883639Y-117839691D02*
G01*
X184055926Y-117911055D01*
X184210979Y-118014658D01*
X184342842Y-118146521D01*
X184446445Y-118301574D01*
X184517809Y-118473861D01*
X184554189Y-118656759D01*
X184554189Y-118843241D01*
X184517809Y-119026139D01*
X184446445Y-119198426D01*
X184342842Y-119353479D01*
X184210979Y-119485342D01*
X184055926Y-119588945D01*
X183883639Y-119660309D01*
X183700741Y-119696689D01*
X183514259Y-119696689D01*
X183331361Y-119660309D01*
X183159074Y-119588945D01*
X183004021Y-119485342D01*
X182872158Y-119353479D01*
X182768555Y-119198426D01*
X182697191Y-119026139D01*
X182660811Y-118843241D01*
X182660811Y-118656759D01*
X182697191Y-118473861D01*
X182768555Y-118301574D01*
X182872158Y-118146521D01*
X183004021Y-118014658D01*
X183159074Y-117911055D01*
X183331361Y-117839691D01*
X183514259Y-117803311D01*
X183700741Y-117803311D01*
X183883639Y-117839691D01*
G37*
G36*
X194883639Y-117839691D02*
G01*
X195055926Y-117911055D01*
X195210979Y-118014658D01*
X195342842Y-118146521D01*
X195446445Y-118301574D01*
X195517809Y-118473861D01*
X195554189Y-118656759D01*
X195554189Y-118843241D01*
X195517809Y-119026139D01*
X195446445Y-119198426D01*
X195342842Y-119353479D01*
X195210979Y-119485342D01*
X195055926Y-119588945D01*
X194883639Y-119660309D01*
X194700741Y-119696689D01*
X194514259Y-119696689D01*
X194331361Y-119660309D01*
X194159074Y-119588945D01*
X194004021Y-119485342D01*
X193872158Y-119353479D01*
X193768555Y-119198426D01*
X193697191Y-119026139D01*
X193660811Y-118843241D01*
X193660811Y-118656759D01*
X193697191Y-118473861D01*
X193768555Y-118301574D01*
X193872158Y-118146521D01*
X194004021Y-118014658D01*
X194159074Y-117911055D01*
X194331361Y-117839691D01*
X194514259Y-117803311D01*
X194700741Y-117803311D01*
X194883639Y-117839691D01*
G37*
G36*
X160789586Y-108154158D02*
G01*
X160953938Y-108207559D01*
X161107912Y-108286013D01*
X161247718Y-108387588D01*
X161369912Y-108509782D01*
X161471487Y-108649588D01*
X161549941Y-108803562D01*
X161603342Y-108967914D01*
X161630375Y-109138595D01*
X161630375Y-109311405D01*
X161603342Y-109482086D01*
X161549941Y-109646438D01*
X161471487Y-109800412D01*
X161369912Y-109940218D01*
X161247718Y-110062412D01*
X161107912Y-110163987D01*
X160953938Y-110242441D01*
X160789586Y-110295842D01*
X160618905Y-110322875D01*
X160446095Y-110322875D01*
X160275414Y-110295842D01*
X160111062Y-110242441D01*
X159957088Y-110163987D01*
X159817282Y-110062412D01*
X159695088Y-109940218D01*
X159593513Y-109800412D01*
X159515059Y-109646438D01*
X159461658Y-109482086D01*
X159434625Y-109311405D01*
X159434625Y-109138595D01*
X159461658Y-108967914D01*
X159515059Y-108803562D01*
X159593513Y-108649588D01*
X159695088Y-108509782D01*
X159817282Y-108387588D01*
X159957088Y-108286013D01*
X160111062Y-108207559D01*
X160275414Y-108154158D01*
X160446095Y-108127125D01*
X160618905Y-108127125D01*
X160789586Y-108154158D01*
G37*
G36*
X132307965Y-104140210D02*
G01*
X132532011Y-104213007D01*
X132741911Y-104319957D01*
X132932497Y-104458425D01*
X133099075Y-104625003D01*
X133237543Y-104815589D01*
X133344493Y-105025489D01*
X133417290Y-105249535D01*
X133454142Y-105482212D01*
X133454142Y-105717788D01*
X133417290Y-105950465D01*
X133344493Y-106174511D01*
X133237543Y-106384411D01*
X133099075Y-106574997D01*
X132932497Y-106741575D01*
X132741911Y-106880043D01*
X132532011Y-106986993D01*
X132307965Y-107059790D01*
X132075288Y-107096642D01*
X131839712Y-107096642D01*
X131607035Y-107059790D01*
X131382989Y-106986993D01*
X131173089Y-106880043D01*
X130982503Y-106741575D01*
X130815925Y-106574997D01*
X130677457Y-106384411D01*
X130570507Y-106174511D01*
X130497710Y-105950465D01*
X130460858Y-105717788D01*
X130460858Y-105482212D01*
X130497710Y-105249535D01*
X130570507Y-105025489D01*
X130677457Y-104815589D01*
X130815925Y-104625003D01*
X130982503Y-104458425D01*
X131173089Y-104319957D01*
X131382989Y-104213007D01*
X131607035Y-104140210D01*
X131839712Y-104103358D01*
X132075288Y-104103358D01*
X132307965Y-104140210D01*
G37*
G36*
X151357965Y-104140210D02*
G01*
X151582011Y-104213007D01*
X151791911Y-104319957D01*
X151982497Y-104458425D01*
X152149075Y-104625003D01*
X152287543Y-104815589D01*
X152394493Y-105025489D01*
X152467290Y-105249535D01*
X152504142Y-105482212D01*
X152504142Y-105717788D01*
X152467290Y-105950465D01*
X152394493Y-106174511D01*
X152287543Y-106384411D01*
X152149075Y-106574997D01*
X151982497Y-106741575D01*
X151791911Y-106880043D01*
X151582011Y-106986993D01*
X151357965Y-107059790D01*
X151125288Y-107096642D01*
X150889712Y-107096642D01*
X150657035Y-107059790D01*
X150432989Y-106986993D01*
X150223089Y-106880043D01*
X150032503Y-106741575D01*
X149865925Y-106574997D01*
X149727457Y-106384411D01*
X149620507Y-106174511D01*
X149547710Y-105950465D01*
X149510858Y-105717788D01*
X149510858Y-105482212D01*
X149547710Y-105249535D01*
X149620507Y-105025489D01*
X149727457Y-104815589D01*
X149865925Y-104625003D01*
X150032503Y-104458425D01*
X150223089Y-104319957D01*
X150432989Y-104213007D01*
X150657035Y-104140210D01*
X150889712Y-104103358D01*
X151125288Y-104103358D01*
X151357965Y-104140210D01*
G37*
G36*
X170407965Y-104140210D02*
G01*
X170632011Y-104213007D01*
X170841911Y-104319957D01*
X171032497Y-104458425D01*
X171199075Y-104625003D01*
X171337543Y-104815589D01*
X171444493Y-105025489D01*
X171517290Y-105249535D01*
X171554142Y-105482212D01*
X171554142Y-105717788D01*
X171517290Y-105950465D01*
X171444493Y-106174511D01*
X171337543Y-106384411D01*
X171199075Y-106574997D01*
X171032497Y-106741575D01*
X170841911Y-106880043D01*
X170632011Y-106986993D01*
X170407965Y-107059790D01*
X170175288Y-107096642D01*
X169939712Y-107096642D01*
X169707035Y-107059790D01*
X169482989Y-106986993D01*
X169273089Y-106880043D01*
X169082503Y-106741575D01*
X168915925Y-106574997D01*
X168777457Y-106384411D01*
X168670507Y-106174511D01*
X168597710Y-105950465D01*
X168560858Y-105717788D01*
X168560858Y-105482212D01*
X168597710Y-105249535D01*
X168670507Y-105025489D01*
X168777457Y-104815589D01*
X168915925Y-104625003D01*
X169082503Y-104458425D01*
X169273089Y-104319957D01*
X169482989Y-104213007D01*
X169707035Y-104140210D01*
X169939712Y-104103358D01*
X170175288Y-104103358D01*
X170407965Y-104140210D01*
G37*
G36*
X189457965Y-104140210D02*
G01*
X189682011Y-104213007D01*
X189891911Y-104319957D01*
X190082497Y-104458425D01*
X190249075Y-104625003D01*
X190387543Y-104815589D01*
X190494493Y-105025489D01*
X190567290Y-105249535D01*
X190604142Y-105482212D01*
X190604142Y-105717788D01*
X190567290Y-105950465D01*
X190494493Y-106174511D01*
X190387543Y-106384411D01*
X190249075Y-106574997D01*
X190082497Y-106741575D01*
X189891911Y-106880043D01*
X189682011Y-106986993D01*
X189457965Y-107059790D01*
X189225288Y-107096642D01*
X188989712Y-107096642D01*
X188757035Y-107059790D01*
X188532989Y-106986993D01*
X188323089Y-106880043D01*
X188132503Y-106741575D01*
X187965925Y-106574997D01*
X187827457Y-106384411D01*
X187720507Y-106174511D01*
X187647710Y-105950465D01*
X187610858Y-105717788D01*
X187610858Y-105482212D01*
X187647710Y-105249535D01*
X187720507Y-105025489D01*
X187827457Y-104815589D01*
X187965925Y-104625003D01*
X188132503Y-104458425D01*
X188323089Y-104319957D01*
X188532989Y-104213007D01*
X188757035Y-104140210D01*
X188989712Y-104103358D01*
X189225288Y-104103358D01*
X189457965Y-104140210D01*
G37*
G36*
X127307965Y-101940210D02*
G01*
X127532011Y-102013007D01*
X127741911Y-102119957D01*
X127932497Y-102258425D01*
X128099075Y-102425003D01*
X128237543Y-102615589D01*
X128344493Y-102825489D01*
X128417290Y-103049535D01*
X128454142Y-103282212D01*
X128454142Y-103517788D01*
X128417290Y-103750465D01*
X128344493Y-103974511D01*
X128237543Y-104184411D01*
X128099075Y-104374997D01*
X127932497Y-104541575D01*
X127741911Y-104680043D01*
X127532011Y-104786993D01*
X127307965Y-104859790D01*
X127075288Y-104896642D01*
X126839712Y-104896642D01*
X126607035Y-104859790D01*
X126382989Y-104786993D01*
X126173089Y-104680043D01*
X125982503Y-104541575D01*
X125815925Y-104374997D01*
X125677457Y-104184411D01*
X125570507Y-103974511D01*
X125497710Y-103750465D01*
X125460858Y-103517788D01*
X125460858Y-103282212D01*
X125497710Y-103049535D01*
X125570507Y-102825489D01*
X125677457Y-102615589D01*
X125815925Y-102425003D01*
X125982503Y-102258425D01*
X126173089Y-102119957D01*
X126382989Y-102013007D01*
X126607035Y-101940210D01*
X126839712Y-101903358D01*
X127075288Y-101903358D01*
X127307965Y-101940210D01*
G37*
G36*
X146357965Y-101940210D02*
G01*
X146582011Y-102013007D01*
X146791911Y-102119957D01*
X146982497Y-102258425D01*
X147149075Y-102425003D01*
X147287543Y-102615589D01*
X147394493Y-102825489D01*
X147467290Y-103049535D01*
X147504142Y-103282212D01*
X147504142Y-103517788D01*
X147467290Y-103750465D01*
X147394493Y-103974511D01*
X147287543Y-104184411D01*
X147149075Y-104374997D01*
X146982497Y-104541575D01*
X146791911Y-104680043D01*
X146582011Y-104786993D01*
X146357965Y-104859790D01*
X146125288Y-104896642D01*
X145889712Y-104896642D01*
X145657035Y-104859790D01*
X145432989Y-104786993D01*
X145223089Y-104680043D01*
X145032503Y-104541575D01*
X144865925Y-104374997D01*
X144727457Y-104184411D01*
X144620507Y-103974511D01*
X144547710Y-103750465D01*
X144510858Y-103517788D01*
X144510858Y-103282212D01*
X144547710Y-103049535D01*
X144620507Y-102825489D01*
X144727457Y-102615589D01*
X144865925Y-102425003D01*
X145032503Y-102258425D01*
X145223089Y-102119957D01*
X145432989Y-102013007D01*
X145657035Y-101940210D01*
X145889712Y-101903358D01*
X146125288Y-101903358D01*
X146357965Y-101940210D01*
G37*
G36*
X165407965Y-101940210D02*
G01*
X165632011Y-102013007D01*
X165841911Y-102119957D01*
X166032497Y-102258425D01*
X166199075Y-102425003D01*
X166337543Y-102615589D01*
X166444493Y-102825489D01*
X166517290Y-103049535D01*
X166554142Y-103282212D01*
X166554142Y-103517788D01*
X166517290Y-103750465D01*
X166444493Y-103974511D01*
X166337543Y-104184411D01*
X166199075Y-104374997D01*
X166032497Y-104541575D01*
X165841911Y-104680043D01*
X165632011Y-104786993D01*
X165407965Y-104859790D01*
X165175288Y-104896642D01*
X164939712Y-104896642D01*
X164707035Y-104859790D01*
X164482989Y-104786993D01*
X164273089Y-104680043D01*
X164082503Y-104541575D01*
X163915925Y-104374997D01*
X163777457Y-104184411D01*
X163670507Y-103974511D01*
X163597710Y-103750465D01*
X163560858Y-103517788D01*
X163560858Y-103282212D01*
X163597710Y-103049535D01*
X163670507Y-102825489D01*
X163777457Y-102615589D01*
X163915925Y-102425003D01*
X164082503Y-102258425D01*
X164273089Y-102119957D01*
X164482989Y-102013007D01*
X164707035Y-101940210D01*
X164939712Y-101903358D01*
X165175288Y-101903358D01*
X165407965Y-101940210D01*
G37*
G36*
X184457965Y-101940210D02*
G01*
X184682011Y-102013007D01*
X184891911Y-102119957D01*
X185082497Y-102258425D01*
X185249075Y-102425003D01*
X185387543Y-102615589D01*
X185494493Y-102825489D01*
X185567290Y-103049535D01*
X185604142Y-103282212D01*
X185604142Y-103517788D01*
X185567290Y-103750465D01*
X185494493Y-103974511D01*
X185387543Y-104184411D01*
X185249075Y-104374997D01*
X185082497Y-104541575D01*
X184891911Y-104680043D01*
X184682011Y-104786993D01*
X184457965Y-104859790D01*
X184225288Y-104896642D01*
X183989712Y-104896642D01*
X183757035Y-104859790D01*
X183532989Y-104786993D01*
X183323089Y-104680043D01*
X183132503Y-104541575D01*
X182965925Y-104374997D01*
X182827457Y-104184411D01*
X182720507Y-103974511D01*
X182647710Y-103750465D01*
X182610858Y-103517788D01*
X182610858Y-103282212D01*
X182647710Y-103049535D01*
X182720507Y-102825489D01*
X182827457Y-102615589D01*
X182965925Y-102425003D01*
X183132503Y-102258425D01*
X183323089Y-102119957D01*
X183532989Y-102013007D01*
X183757035Y-101940210D01*
X183989712Y-101903358D01*
X184225288Y-101903358D01*
X184457965Y-101940210D01*
G37*
G36*
X132376478Y-97234070D02*
G01*
X132649940Y-97296486D01*
X132914695Y-97389128D01*
X133167412Y-97510830D01*
X133404913Y-97660062D01*
X133624213Y-97834948D01*
X133822552Y-98033287D01*
X133997438Y-98252587D01*
X134146670Y-98490088D01*
X134268372Y-98742805D01*
X134361014Y-99007560D01*
X134423430Y-99281022D01*
X134454835Y-99559753D01*
X134454835Y-99840247D01*
X134423430Y-100118978D01*
X134361014Y-100392440D01*
X134268372Y-100657195D01*
X134146670Y-100909912D01*
X133997438Y-101147413D01*
X133822552Y-101366713D01*
X133624213Y-101565052D01*
X133404913Y-101739938D01*
X133167412Y-101889170D01*
X132914695Y-102010872D01*
X132649940Y-102103514D01*
X132376478Y-102165930D01*
X132097747Y-102197335D01*
X131817253Y-102197335D01*
X131538522Y-102165930D01*
X131265060Y-102103514D01*
X131000305Y-102010872D01*
X130747588Y-101889170D01*
X130510087Y-101739938D01*
X130290787Y-101565052D01*
X130092448Y-101366713D01*
X129917562Y-101147413D01*
X129768330Y-100909912D01*
X129646628Y-100657195D01*
X129553986Y-100392440D01*
X129491570Y-100118978D01*
X129460165Y-99840247D01*
X129460165Y-99559753D01*
X129491570Y-99281022D01*
X129553986Y-99007560D01*
X129646628Y-98742805D01*
X129768330Y-98490088D01*
X129917562Y-98252587D01*
X130092448Y-98033287D01*
X130290787Y-97834948D01*
X130510087Y-97660062D01*
X130747588Y-97510830D01*
X131000305Y-97389128D01*
X131265060Y-97296486D01*
X131538522Y-97234070D01*
X131817253Y-97202665D01*
X132097747Y-97202665D01*
X132376478Y-97234070D01*
G37*
G36*
X151426478Y-97234070D02*
G01*
X151699940Y-97296486D01*
X151964695Y-97389128D01*
X152217412Y-97510830D01*
X152454913Y-97660062D01*
X152674213Y-97834948D01*
X152872552Y-98033287D01*
X153047438Y-98252587D01*
X153196670Y-98490088D01*
X153318372Y-98742805D01*
X153411014Y-99007560D01*
X153473430Y-99281022D01*
X153504835Y-99559753D01*
X153504835Y-99840247D01*
X153473430Y-100118978D01*
X153411014Y-100392440D01*
X153318372Y-100657195D01*
X153196670Y-100909912D01*
X153047438Y-101147413D01*
X152872552Y-101366713D01*
X152674213Y-101565052D01*
X152454913Y-101739938D01*
X152217412Y-101889170D01*
X151964695Y-102010872D01*
X151699940Y-102103514D01*
X151426478Y-102165930D01*
X151147747Y-102197335D01*
X150867253Y-102197335D01*
X150588522Y-102165930D01*
X150315060Y-102103514D01*
X150050305Y-102010872D01*
X149797588Y-101889170D01*
X149560087Y-101739938D01*
X149340787Y-101565052D01*
X149142448Y-101366713D01*
X148967562Y-101147413D01*
X148818330Y-100909912D01*
X148696628Y-100657195D01*
X148603986Y-100392440D01*
X148541570Y-100118978D01*
X148510165Y-99840247D01*
X148510165Y-99559753D01*
X148541570Y-99281022D01*
X148603986Y-99007560D01*
X148696628Y-98742805D01*
X148818330Y-98490088D01*
X148967562Y-98252587D01*
X149142448Y-98033287D01*
X149340787Y-97834948D01*
X149560087Y-97660062D01*
X149797588Y-97510830D01*
X150050305Y-97389128D01*
X150315060Y-97296486D01*
X150588522Y-97234070D01*
X150867253Y-97202665D01*
X151147747Y-97202665D01*
X151426478Y-97234070D01*
G37*
G36*
X170476478Y-97234070D02*
G01*
X170749940Y-97296486D01*
X171014695Y-97389128D01*
X171267412Y-97510830D01*
X171504913Y-97660062D01*
X171724213Y-97834948D01*
X171922552Y-98033287D01*
X172097438Y-98252587D01*
X172246670Y-98490088D01*
X172368372Y-98742805D01*
X172461014Y-99007560D01*
X172523430Y-99281022D01*
X172554835Y-99559753D01*
X172554835Y-99840247D01*
X172523430Y-100118978D01*
X172461014Y-100392440D01*
X172368372Y-100657195D01*
X172246670Y-100909912D01*
X172097438Y-101147413D01*
X171922552Y-101366713D01*
X171724213Y-101565052D01*
X171504913Y-101739938D01*
X171267412Y-101889170D01*
X171014695Y-102010872D01*
X170749940Y-102103514D01*
X170476478Y-102165930D01*
X170197747Y-102197335D01*
X169917253Y-102197335D01*
X169638522Y-102165930D01*
X169365060Y-102103514D01*
X169100305Y-102010872D01*
X168847588Y-101889170D01*
X168610087Y-101739938D01*
X168390787Y-101565052D01*
X168192448Y-101366713D01*
X168017562Y-101147413D01*
X167868330Y-100909912D01*
X167746628Y-100657195D01*
X167653986Y-100392440D01*
X167591570Y-100118978D01*
X167560165Y-99840247D01*
X167560165Y-99559753D01*
X167591570Y-99281022D01*
X167653986Y-99007560D01*
X167746628Y-98742805D01*
X167868330Y-98490088D01*
X168017562Y-98252587D01*
X168192448Y-98033287D01*
X168390787Y-97834948D01*
X168610087Y-97660062D01*
X168847588Y-97510830D01*
X169100305Y-97389128D01*
X169365060Y-97296486D01*
X169638522Y-97234070D01*
X169917253Y-97202665D01*
X170197747Y-97202665D01*
X170476478Y-97234070D01*
G37*
G36*
X189526478Y-97234070D02*
G01*
X189799940Y-97296486D01*
X190064695Y-97389128D01*
X190317412Y-97510830D01*
X190554913Y-97660062D01*
X190774213Y-97834948D01*
X190972552Y-98033287D01*
X191147438Y-98252587D01*
X191296670Y-98490088D01*
X191418372Y-98742805D01*
X191511014Y-99007560D01*
X191573430Y-99281022D01*
X191604835Y-99559753D01*
X191604835Y-99840247D01*
X191573430Y-100118978D01*
X191511014Y-100392440D01*
X191418372Y-100657195D01*
X191296670Y-100909912D01*
X191147438Y-101147413D01*
X190972552Y-101366713D01*
X190774213Y-101565052D01*
X190554913Y-101739938D01*
X190317412Y-101889170D01*
X190064695Y-102010872D01*
X189799940Y-102103514D01*
X189526478Y-102165930D01*
X189247747Y-102197335D01*
X188967253Y-102197335D01*
X188688522Y-102165930D01*
X188415060Y-102103514D01*
X188150305Y-102010872D01*
X187897588Y-101889170D01*
X187660087Y-101739938D01*
X187440787Y-101565052D01*
X187242448Y-101366713D01*
X187067562Y-101147413D01*
X186918330Y-100909912D01*
X186796628Y-100657195D01*
X186703986Y-100392440D01*
X186641570Y-100118978D01*
X186610165Y-99840247D01*
X186610165Y-99559753D01*
X186641570Y-99281022D01*
X186703986Y-99007560D01*
X186796628Y-98742805D01*
X186918330Y-98490088D01*
X187067562Y-98252587D01*
X187242448Y-98033287D01*
X187440787Y-97834948D01*
X187660087Y-97660062D01*
X187897588Y-97510830D01*
X188150305Y-97389128D01*
X188415060Y-97296486D01*
X188688522Y-97234070D01*
X188967253Y-97202665D01*
X189247747Y-97202665D01*
X189526478Y-97234070D01*
G37*
G36*
X126733639Y-98789691D02*
G01*
X126905926Y-98861055D01*
X127060979Y-98964658D01*
X127192842Y-99096521D01*
X127296445Y-99251574D01*
X127367809Y-99423861D01*
X127404189Y-99606759D01*
X127404189Y-99793241D01*
X127367809Y-99976139D01*
X127296445Y-100148426D01*
X127192842Y-100303479D01*
X127060979Y-100435342D01*
X126905926Y-100538945D01*
X126733639Y-100610309D01*
X126550741Y-100646689D01*
X126364259Y-100646689D01*
X126181361Y-100610309D01*
X126009074Y-100538945D01*
X125854021Y-100435342D01*
X125722158Y-100303479D01*
X125618555Y-100148426D01*
X125547191Y-99976139D01*
X125510811Y-99793241D01*
X125510811Y-99606759D01*
X125547191Y-99423861D01*
X125618555Y-99251574D01*
X125722158Y-99096521D01*
X125854021Y-98964658D01*
X126009074Y-98861055D01*
X126181361Y-98789691D01*
X126364259Y-98753311D01*
X126550741Y-98753311D01*
X126733639Y-98789691D01*
G37*
G36*
X137733639Y-98789691D02*
G01*
X137905926Y-98861055D01*
X138060979Y-98964658D01*
X138192842Y-99096521D01*
X138296445Y-99251574D01*
X138367809Y-99423861D01*
X138404189Y-99606759D01*
X138404189Y-99793241D01*
X138367809Y-99976139D01*
X138296445Y-100148426D01*
X138192842Y-100303479D01*
X138060979Y-100435342D01*
X137905926Y-100538945D01*
X137733639Y-100610309D01*
X137550741Y-100646689D01*
X137364259Y-100646689D01*
X137181361Y-100610309D01*
X137009074Y-100538945D01*
X136854021Y-100435342D01*
X136722158Y-100303479D01*
X136618555Y-100148426D01*
X136547191Y-99976139D01*
X136510811Y-99793241D01*
X136510811Y-99606759D01*
X136547191Y-99423861D01*
X136618555Y-99251574D01*
X136722158Y-99096521D01*
X136854021Y-98964658D01*
X137009074Y-98861055D01*
X137181361Y-98789691D01*
X137364259Y-98753311D01*
X137550741Y-98753311D01*
X137733639Y-98789691D01*
G37*
G36*
X145783639Y-98789691D02*
G01*
X145955926Y-98861055D01*
X146110979Y-98964658D01*
X146242842Y-99096521D01*
X146346445Y-99251574D01*
X146417809Y-99423861D01*
X146454189Y-99606759D01*
X146454189Y-99793241D01*
X146417809Y-99976139D01*
X146346445Y-100148426D01*
X146242842Y-100303479D01*
X146110979Y-100435342D01*
X145955926Y-100538945D01*
X145783639Y-100610309D01*
X145600741Y-100646689D01*
X145414259Y-100646689D01*
X145231361Y-100610309D01*
X145059074Y-100538945D01*
X144904021Y-100435342D01*
X144772158Y-100303479D01*
X144668555Y-100148426D01*
X144597191Y-99976139D01*
X144560811Y-99793241D01*
X144560811Y-99606759D01*
X144597191Y-99423861D01*
X144668555Y-99251574D01*
X144772158Y-99096521D01*
X144904021Y-98964658D01*
X145059074Y-98861055D01*
X145231361Y-98789691D01*
X145414259Y-98753311D01*
X145600741Y-98753311D01*
X145783639Y-98789691D01*
G37*
G36*
X156783639Y-98789691D02*
G01*
X156955926Y-98861055D01*
X157110979Y-98964658D01*
X157242842Y-99096521D01*
X157346445Y-99251574D01*
X157417809Y-99423861D01*
X157454189Y-99606759D01*
X157454189Y-99793241D01*
X157417809Y-99976139D01*
X157346445Y-100148426D01*
X157242842Y-100303479D01*
X157110979Y-100435342D01*
X156955926Y-100538945D01*
X156783639Y-100610309D01*
X156600741Y-100646689D01*
X156414259Y-100646689D01*
X156231361Y-100610309D01*
X156059074Y-100538945D01*
X155904021Y-100435342D01*
X155772158Y-100303479D01*
X155668555Y-100148426D01*
X155597191Y-99976139D01*
X155560811Y-99793241D01*
X155560811Y-99606759D01*
X155597191Y-99423861D01*
X155668555Y-99251574D01*
X155772158Y-99096521D01*
X155904021Y-98964658D01*
X156059074Y-98861055D01*
X156231361Y-98789691D01*
X156414259Y-98753311D01*
X156600741Y-98753311D01*
X156783639Y-98789691D01*
G37*
G36*
X164833639Y-98789691D02*
G01*
X165005926Y-98861055D01*
X165160979Y-98964658D01*
X165292842Y-99096521D01*
X165396445Y-99251574D01*
X165467809Y-99423861D01*
X165504189Y-99606759D01*
X165504189Y-99793241D01*
X165467809Y-99976139D01*
X165396445Y-100148426D01*
X165292842Y-100303479D01*
X165160979Y-100435342D01*
X165005926Y-100538945D01*
X164833639Y-100610309D01*
X164650741Y-100646689D01*
X164464259Y-100646689D01*
X164281361Y-100610309D01*
X164109074Y-100538945D01*
X163954021Y-100435342D01*
X163822158Y-100303479D01*
X163718555Y-100148426D01*
X163647191Y-99976139D01*
X163610811Y-99793241D01*
X163610811Y-99606759D01*
X163647191Y-99423861D01*
X163718555Y-99251574D01*
X163822158Y-99096521D01*
X163954021Y-98964658D01*
X164109074Y-98861055D01*
X164281361Y-98789691D01*
X164464259Y-98753311D01*
X164650741Y-98753311D01*
X164833639Y-98789691D01*
G37*
G36*
X175833639Y-98789691D02*
G01*
X176005926Y-98861055D01*
X176160979Y-98964658D01*
X176292842Y-99096521D01*
X176396445Y-99251574D01*
X176467809Y-99423861D01*
X176504189Y-99606759D01*
X176504189Y-99793241D01*
X176467809Y-99976139D01*
X176396445Y-100148426D01*
X176292842Y-100303479D01*
X176160979Y-100435342D01*
X176005926Y-100538945D01*
X175833639Y-100610309D01*
X175650741Y-100646689D01*
X175464259Y-100646689D01*
X175281361Y-100610309D01*
X175109074Y-100538945D01*
X174954021Y-100435342D01*
X174822158Y-100303479D01*
X174718555Y-100148426D01*
X174647191Y-99976139D01*
X174610811Y-99793241D01*
X174610811Y-99606759D01*
X174647191Y-99423861D01*
X174718555Y-99251574D01*
X174822158Y-99096521D01*
X174954021Y-98964658D01*
X175109074Y-98861055D01*
X175281361Y-98789691D01*
X175464259Y-98753311D01*
X175650741Y-98753311D01*
X175833639Y-98789691D01*
G37*
G36*
X183883639Y-98789691D02*
G01*
X184055926Y-98861055D01*
X184210979Y-98964658D01*
X184342842Y-99096521D01*
X184446445Y-99251574D01*
X184517809Y-99423861D01*
X184554189Y-99606759D01*
X184554189Y-99793241D01*
X184517809Y-99976139D01*
X184446445Y-100148426D01*
X184342842Y-100303479D01*
X184210979Y-100435342D01*
X184055926Y-100538945D01*
X183883639Y-100610309D01*
X183700741Y-100646689D01*
X183514259Y-100646689D01*
X183331361Y-100610309D01*
X183159074Y-100538945D01*
X183004021Y-100435342D01*
X182872158Y-100303479D01*
X182768555Y-100148426D01*
X182697191Y-99976139D01*
X182660811Y-99793241D01*
X182660811Y-99606759D01*
X182697191Y-99423861D01*
X182768555Y-99251574D01*
X182872158Y-99096521D01*
X183004021Y-98964658D01*
X183159074Y-98861055D01*
X183331361Y-98789691D01*
X183514259Y-98753311D01*
X183700741Y-98753311D01*
X183883639Y-98789691D01*
G37*
G36*
X194883639Y-98789691D02*
G01*
X195055926Y-98861055D01*
X195210979Y-98964658D01*
X195342842Y-99096521D01*
X195446445Y-99251574D01*
X195517809Y-99423861D01*
X195554189Y-99606759D01*
X195554189Y-99793241D01*
X195517809Y-99976139D01*
X195446445Y-100148426D01*
X195342842Y-100303479D01*
X195210979Y-100435342D01*
X195055926Y-100538945D01*
X194883639Y-100610309D01*
X194700741Y-100646689D01*
X194514259Y-100646689D01*
X194331361Y-100610309D01*
X194159074Y-100538945D01*
X194004021Y-100435342D01*
X193872158Y-100303479D01*
X193768555Y-100148426D01*
X193697191Y-99976139D01*
X193660811Y-99793241D01*
X193660811Y-99606759D01*
X193697191Y-99423861D01*
X193768555Y-99251574D01*
X193872158Y-99096521D01*
X194004021Y-98964658D01*
X194159074Y-98861055D01*
X194331361Y-98789691D01*
X194514259Y-98753311D01*
X194700741Y-98753311D01*
X194883639Y-98789691D01*
G37*
G36*
X141739586Y-89104158D02*
G01*
X141903938Y-89157559D01*
X142057912Y-89236013D01*
X142197718Y-89337588D01*
X142319912Y-89459782D01*
X142421487Y-89599588D01*
X142499941Y-89753562D01*
X142553342Y-89917914D01*
X142580375Y-90088595D01*
X142580375Y-90261405D01*
X142553342Y-90432086D01*
X142499941Y-90596438D01*
X142421487Y-90750412D01*
X142319912Y-90890218D01*
X142197718Y-91012412D01*
X142057912Y-91113987D01*
X141903938Y-91192441D01*
X141739586Y-91245842D01*
X141568905Y-91272875D01*
X141396095Y-91272875D01*
X141225414Y-91245842D01*
X141061062Y-91192441D01*
X140907088Y-91113987D01*
X140767282Y-91012412D01*
X140645088Y-90890218D01*
X140543513Y-90750412D01*
X140465059Y-90596438D01*
X140411658Y-90432086D01*
X140384625Y-90261405D01*
X140384625Y-90088595D01*
X140411658Y-89917914D01*
X140465059Y-89753562D01*
X140543513Y-89599588D01*
X140645088Y-89459782D01*
X140767282Y-89337588D01*
X140907088Y-89236013D01*
X141061062Y-89157559D01*
X141225414Y-89104158D01*
X141396095Y-89077125D01*
X141568905Y-89077125D01*
X141739586Y-89104158D01*
G37*
G36*
X179839586Y-89104158D02*
G01*
X180003938Y-89157559D01*
X180157912Y-89236013D01*
X180297718Y-89337588D01*
X180419912Y-89459782D01*
X180521487Y-89599588D01*
X180599941Y-89753562D01*
X180653342Y-89917914D01*
X180680375Y-90088595D01*
X180680375Y-90261405D01*
X180653342Y-90432086D01*
X180599941Y-90596438D01*
X180521487Y-90750412D01*
X180419912Y-90890218D01*
X180297718Y-91012412D01*
X180157912Y-91113987D01*
X180003938Y-91192441D01*
X179839586Y-91245842D01*
X179668905Y-91272875D01*
X179496095Y-91272875D01*
X179325414Y-91245842D01*
X179161062Y-91192441D01*
X179007088Y-91113987D01*
X178867282Y-91012412D01*
X178745088Y-90890218D01*
X178643513Y-90750412D01*
X178565059Y-90596438D01*
X178511658Y-90432086D01*
X178484625Y-90261405D01*
X178484625Y-90088595D01*
X178511658Y-89917914D01*
X178565059Y-89753562D01*
X178643513Y-89599588D01*
X178745088Y-89459782D01*
X178867282Y-89337588D01*
X179007088Y-89236013D01*
X179161062Y-89157559D01*
X179325414Y-89104158D01*
X179496095Y-89077125D01*
X179668905Y-89077125D01*
X179839586Y-89104158D01*
G37*
G36*
X132307965Y-85090210D02*
G01*
X132532011Y-85163007D01*
X132741911Y-85269957D01*
X132932497Y-85408425D01*
X133099075Y-85575003D01*
X133237543Y-85765589D01*
X133344493Y-85975489D01*
X133417290Y-86199535D01*
X133454142Y-86432212D01*
X133454142Y-86667788D01*
X133417290Y-86900465D01*
X133344493Y-87124511D01*
X133237543Y-87334411D01*
X133099075Y-87524997D01*
X132932497Y-87691575D01*
X132741911Y-87830043D01*
X132532011Y-87936993D01*
X132307965Y-88009790D01*
X132075288Y-88046642D01*
X131839712Y-88046642D01*
X131607035Y-88009790D01*
X131382989Y-87936993D01*
X131173089Y-87830043D01*
X130982503Y-87691575D01*
X130815925Y-87524997D01*
X130677457Y-87334411D01*
X130570507Y-87124511D01*
X130497710Y-86900465D01*
X130460858Y-86667788D01*
X130460858Y-86432212D01*
X130497710Y-86199535D01*
X130570507Y-85975489D01*
X130677457Y-85765589D01*
X130815925Y-85575003D01*
X130982503Y-85408425D01*
X131173089Y-85269957D01*
X131382989Y-85163007D01*
X131607035Y-85090210D01*
X131839712Y-85053358D01*
X132075288Y-85053358D01*
X132307965Y-85090210D01*
G37*
G36*
X151357965Y-85090210D02*
G01*
X151582011Y-85163007D01*
X151791911Y-85269957D01*
X151982497Y-85408425D01*
X152149075Y-85575003D01*
X152287543Y-85765589D01*
X152394493Y-85975489D01*
X152467290Y-86199535D01*
X152504142Y-86432212D01*
X152504142Y-86667788D01*
X152467290Y-86900465D01*
X152394493Y-87124511D01*
X152287543Y-87334411D01*
X152149075Y-87524997D01*
X151982497Y-87691575D01*
X151791911Y-87830043D01*
X151582011Y-87936993D01*
X151357965Y-88009790D01*
X151125288Y-88046642D01*
X150889712Y-88046642D01*
X150657035Y-88009790D01*
X150432989Y-87936993D01*
X150223089Y-87830043D01*
X150032503Y-87691575D01*
X149865925Y-87524997D01*
X149727457Y-87334411D01*
X149620507Y-87124511D01*
X149547710Y-86900465D01*
X149510858Y-86667788D01*
X149510858Y-86432212D01*
X149547710Y-86199535D01*
X149620507Y-85975489D01*
X149727457Y-85765589D01*
X149865925Y-85575003D01*
X150032503Y-85408425D01*
X150223089Y-85269957D01*
X150432989Y-85163007D01*
X150657035Y-85090210D01*
X150889712Y-85053358D01*
X151125288Y-85053358D01*
X151357965Y-85090210D01*
G37*
G36*
X170407965Y-85090210D02*
G01*
X170632011Y-85163007D01*
X170841911Y-85269957D01*
X171032497Y-85408425D01*
X171199075Y-85575003D01*
X171337543Y-85765589D01*
X171444493Y-85975489D01*
X171517290Y-86199535D01*
X171554142Y-86432212D01*
X171554142Y-86667788D01*
X171517290Y-86900465D01*
X171444493Y-87124511D01*
X171337543Y-87334411D01*
X171199075Y-87524997D01*
X171032497Y-87691575D01*
X170841911Y-87830043D01*
X170632011Y-87936993D01*
X170407965Y-88009790D01*
X170175288Y-88046642D01*
X169939712Y-88046642D01*
X169707035Y-88009790D01*
X169482989Y-87936993D01*
X169273089Y-87830043D01*
X169082503Y-87691575D01*
X168915925Y-87524997D01*
X168777457Y-87334411D01*
X168670507Y-87124511D01*
X168597710Y-86900465D01*
X168560858Y-86667788D01*
X168560858Y-86432212D01*
X168597710Y-86199535D01*
X168670507Y-85975489D01*
X168777457Y-85765589D01*
X168915925Y-85575003D01*
X169082503Y-85408425D01*
X169273089Y-85269957D01*
X169482989Y-85163007D01*
X169707035Y-85090210D01*
X169939712Y-85053358D01*
X170175288Y-85053358D01*
X170407965Y-85090210D01*
G37*
G36*
X189457965Y-85090210D02*
G01*
X189682011Y-85163007D01*
X189891911Y-85269957D01*
X190082497Y-85408425D01*
X190249075Y-85575003D01*
X190387543Y-85765589D01*
X190494493Y-85975489D01*
X190567290Y-86199535D01*
X190604142Y-86432212D01*
X190604142Y-86667788D01*
X190567290Y-86900465D01*
X190494493Y-87124511D01*
X190387543Y-87334411D01*
X190249075Y-87524997D01*
X190082497Y-87691575D01*
X189891911Y-87830043D01*
X189682011Y-87936993D01*
X189457965Y-88009790D01*
X189225288Y-88046642D01*
X188989712Y-88046642D01*
X188757035Y-88009790D01*
X188532989Y-87936993D01*
X188323089Y-87830043D01*
X188132503Y-87691575D01*
X187965925Y-87524997D01*
X187827457Y-87334411D01*
X187720507Y-87124511D01*
X187647710Y-86900465D01*
X187610858Y-86667788D01*
X187610858Y-86432212D01*
X187647710Y-86199535D01*
X187720507Y-85975489D01*
X187827457Y-85765589D01*
X187965925Y-85575003D01*
X188132503Y-85408425D01*
X188323089Y-85269957D01*
X188532989Y-85163007D01*
X188757035Y-85090210D01*
X188989712Y-85053358D01*
X189225288Y-85053358D01*
X189457965Y-85090210D01*
G37*
G36*
X127307965Y-82890210D02*
G01*
X127532011Y-82963007D01*
X127741911Y-83069957D01*
X127932497Y-83208425D01*
X128099075Y-83375003D01*
X128237543Y-83565589D01*
X128344493Y-83775489D01*
X128417290Y-83999535D01*
X128454142Y-84232212D01*
X128454142Y-84467788D01*
X128417290Y-84700465D01*
X128344493Y-84924511D01*
X128237543Y-85134411D01*
X128099075Y-85324997D01*
X127932497Y-85491575D01*
X127741911Y-85630043D01*
X127532011Y-85736993D01*
X127307965Y-85809790D01*
X127075288Y-85846642D01*
X126839712Y-85846642D01*
X126607035Y-85809790D01*
X126382989Y-85736993D01*
X126173089Y-85630043D01*
X125982503Y-85491575D01*
X125815925Y-85324997D01*
X125677457Y-85134411D01*
X125570507Y-84924511D01*
X125497710Y-84700465D01*
X125460858Y-84467788D01*
X125460858Y-84232212D01*
X125497710Y-83999535D01*
X125570507Y-83775489D01*
X125677457Y-83565589D01*
X125815925Y-83375003D01*
X125982503Y-83208425D01*
X126173089Y-83069957D01*
X126382989Y-82963007D01*
X126607035Y-82890210D01*
X126839712Y-82853358D01*
X127075288Y-82853358D01*
X127307965Y-82890210D01*
G37*
G36*
X146357965Y-82890210D02*
G01*
X146582011Y-82963007D01*
X146791911Y-83069957D01*
X146982497Y-83208425D01*
X147149075Y-83375003D01*
X147287543Y-83565589D01*
X147394493Y-83775489D01*
X147467290Y-83999535D01*
X147504142Y-84232212D01*
X147504142Y-84467788D01*
X147467290Y-84700465D01*
X147394493Y-84924511D01*
X147287543Y-85134411D01*
X147149075Y-85324997D01*
X146982497Y-85491575D01*
X146791911Y-85630043D01*
X146582011Y-85736993D01*
X146357965Y-85809790D01*
X146125288Y-85846642D01*
X145889712Y-85846642D01*
X145657035Y-85809790D01*
X145432989Y-85736993D01*
X145223089Y-85630043D01*
X145032503Y-85491575D01*
X144865925Y-85324997D01*
X144727457Y-85134411D01*
X144620507Y-84924511D01*
X144547710Y-84700465D01*
X144510858Y-84467788D01*
X144510858Y-84232212D01*
X144547710Y-83999535D01*
X144620507Y-83775489D01*
X144727457Y-83565589D01*
X144865925Y-83375003D01*
X145032503Y-83208425D01*
X145223089Y-83069957D01*
X145432989Y-82963007D01*
X145657035Y-82890210D01*
X145889712Y-82853358D01*
X146125288Y-82853358D01*
X146357965Y-82890210D01*
G37*
G36*
X165407965Y-82890210D02*
G01*
X165632011Y-82963007D01*
X165841911Y-83069957D01*
X166032497Y-83208425D01*
X166199075Y-83375003D01*
X166337543Y-83565589D01*
X166444493Y-83775489D01*
X166517290Y-83999535D01*
X166554142Y-84232212D01*
X166554142Y-84467788D01*
X166517290Y-84700465D01*
X166444493Y-84924511D01*
X166337543Y-85134411D01*
X166199075Y-85324997D01*
X166032497Y-85491575D01*
X165841911Y-85630043D01*
X165632011Y-85736993D01*
X165407965Y-85809790D01*
X165175288Y-85846642D01*
X164939712Y-85846642D01*
X164707035Y-85809790D01*
X164482989Y-85736993D01*
X164273089Y-85630043D01*
X164082503Y-85491575D01*
X163915925Y-85324997D01*
X163777457Y-85134411D01*
X163670507Y-84924511D01*
X163597710Y-84700465D01*
X163560858Y-84467788D01*
X163560858Y-84232212D01*
X163597710Y-83999535D01*
X163670507Y-83775489D01*
X163777457Y-83565589D01*
X163915925Y-83375003D01*
X164082503Y-83208425D01*
X164273089Y-83069957D01*
X164482989Y-82963007D01*
X164707035Y-82890210D01*
X164939712Y-82853358D01*
X165175288Y-82853358D01*
X165407965Y-82890210D01*
G37*
G36*
X184457965Y-82890210D02*
G01*
X184682011Y-82963007D01*
X184891911Y-83069957D01*
X185082497Y-83208425D01*
X185249075Y-83375003D01*
X185387543Y-83565589D01*
X185494493Y-83775489D01*
X185567290Y-83999535D01*
X185604142Y-84232212D01*
X185604142Y-84467788D01*
X185567290Y-84700465D01*
X185494493Y-84924511D01*
X185387543Y-85134411D01*
X185249075Y-85324997D01*
X185082497Y-85491575D01*
X184891911Y-85630043D01*
X184682011Y-85736993D01*
X184457965Y-85809790D01*
X184225288Y-85846642D01*
X183989712Y-85846642D01*
X183757035Y-85809790D01*
X183532989Y-85736993D01*
X183323089Y-85630043D01*
X183132503Y-85491575D01*
X182965925Y-85324997D01*
X182827457Y-85134411D01*
X182720507Y-84924511D01*
X182647710Y-84700465D01*
X182610858Y-84467788D01*
X182610858Y-84232212D01*
X182647710Y-83999535D01*
X182720507Y-83775489D01*
X182827457Y-83565589D01*
X182965925Y-83375003D01*
X183132503Y-83208425D01*
X183323089Y-83069957D01*
X183532989Y-82963007D01*
X183757035Y-82890210D01*
X183989712Y-82853358D01*
X184225288Y-82853358D01*
X184457965Y-82890210D01*
G37*
G36*
X132376478Y-78184070D02*
G01*
X132649940Y-78246486D01*
X132914695Y-78339128D01*
X133167412Y-78460830D01*
X133404913Y-78610062D01*
X133624213Y-78784948D01*
X133822552Y-78983287D01*
X133997438Y-79202587D01*
X134146670Y-79440088D01*
X134268372Y-79692805D01*
X134361014Y-79957560D01*
X134423430Y-80231022D01*
X134454835Y-80509753D01*
X134454835Y-80790247D01*
X134423430Y-81068978D01*
X134361014Y-81342440D01*
X134268372Y-81607195D01*
X134146670Y-81859912D01*
X133997438Y-82097413D01*
X133822552Y-82316713D01*
X133624213Y-82515052D01*
X133404913Y-82689938D01*
X133167412Y-82839170D01*
X132914695Y-82960872D01*
X132649940Y-83053514D01*
X132376478Y-83115930D01*
X132097747Y-83147335D01*
X131817253Y-83147335D01*
X131538522Y-83115930D01*
X131265060Y-83053514D01*
X131000305Y-82960872D01*
X130747588Y-82839170D01*
X130510087Y-82689938D01*
X130290787Y-82515052D01*
X130092448Y-82316713D01*
X129917562Y-82097413D01*
X129768330Y-81859912D01*
X129646628Y-81607195D01*
X129553986Y-81342440D01*
X129491570Y-81068978D01*
X129460165Y-80790247D01*
X129460165Y-80509753D01*
X129491570Y-80231022D01*
X129553986Y-79957560D01*
X129646628Y-79692805D01*
X129768330Y-79440088D01*
X129917562Y-79202587D01*
X130092448Y-78983287D01*
X130290787Y-78784948D01*
X130510087Y-78610062D01*
X130747588Y-78460830D01*
X131000305Y-78339128D01*
X131265060Y-78246486D01*
X131538522Y-78184070D01*
X131817253Y-78152665D01*
X132097747Y-78152665D01*
X132376478Y-78184070D01*
G37*
G36*
X151426478Y-78184070D02*
G01*
X151699940Y-78246486D01*
X151964695Y-78339128D01*
X152217412Y-78460830D01*
X152454913Y-78610062D01*
X152674213Y-78784948D01*
X152872552Y-78983287D01*
X153047438Y-79202587D01*
X153196670Y-79440088D01*
X153318372Y-79692805D01*
X153411014Y-79957560D01*
X153473430Y-80231022D01*
X153504835Y-80509753D01*
X153504835Y-80790247D01*
X153473430Y-81068978D01*
X153411014Y-81342440D01*
X153318372Y-81607195D01*
X153196670Y-81859912D01*
X153047438Y-82097413D01*
X152872552Y-82316713D01*
X152674213Y-82515052D01*
X152454913Y-82689938D01*
X152217412Y-82839170D01*
X151964695Y-82960872D01*
X151699940Y-83053514D01*
X151426478Y-83115930D01*
X151147747Y-83147335D01*
X150867253Y-83147335D01*
X150588522Y-83115930D01*
X150315060Y-83053514D01*
X150050305Y-82960872D01*
X149797588Y-82839170D01*
X149560087Y-82689938D01*
X149340787Y-82515052D01*
X149142448Y-82316713D01*
X148967562Y-82097413D01*
X148818330Y-81859912D01*
X148696628Y-81607195D01*
X148603986Y-81342440D01*
X148541570Y-81068978D01*
X148510165Y-80790247D01*
X148510165Y-80509753D01*
X148541570Y-80231022D01*
X148603986Y-79957560D01*
X148696628Y-79692805D01*
X148818330Y-79440088D01*
X148967562Y-79202587D01*
X149142448Y-78983287D01*
X149340787Y-78784948D01*
X149560087Y-78610062D01*
X149797588Y-78460830D01*
X150050305Y-78339128D01*
X150315060Y-78246486D01*
X150588522Y-78184070D01*
X150867253Y-78152665D01*
X151147747Y-78152665D01*
X151426478Y-78184070D01*
G37*
G36*
X170476478Y-78184070D02*
G01*
X170749940Y-78246486D01*
X171014695Y-78339128D01*
X171267412Y-78460830D01*
X171504913Y-78610062D01*
X171724213Y-78784948D01*
X171922552Y-78983287D01*
X172097438Y-79202587D01*
X172246670Y-79440088D01*
X172368372Y-79692805D01*
X172461014Y-79957560D01*
X172523430Y-80231022D01*
X172554835Y-80509753D01*
X172554835Y-80790247D01*
X172523430Y-81068978D01*
X172461014Y-81342440D01*
X172368372Y-81607195D01*
X172246670Y-81859912D01*
X172097438Y-82097413D01*
X171922552Y-82316713D01*
X171724213Y-82515052D01*
X171504913Y-82689938D01*
X171267412Y-82839170D01*
X171014695Y-82960872D01*
X170749940Y-83053514D01*
X170476478Y-83115930D01*
X170197747Y-83147335D01*
X169917253Y-83147335D01*
X169638522Y-83115930D01*
X169365060Y-83053514D01*
X169100305Y-82960872D01*
X168847588Y-82839170D01*
X168610087Y-82689938D01*
X168390787Y-82515052D01*
X168192448Y-82316713D01*
X168017562Y-82097413D01*
X167868330Y-81859912D01*
X167746628Y-81607195D01*
X167653986Y-81342440D01*
X167591570Y-81068978D01*
X167560165Y-80790247D01*
X167560165Y-80509753D01*
X167591570Y-80231022D01*
X167653986Y-79957560D01*
X167746628Y-79692805D01*
X167868330Y-79440088D01*
X168017562Y-79202587D01*
X168192448Y-78983287D01*
X168390787Y-78784948D01*
X168610087Y-78610062D01*
X168847588Y-78460830D01*
X169100305Y-78339128D01*
X169365060Y-78246486D01*
X169638522Y-78184070D01*
X169917253Y-78152665D01*
X170197747Y-78152665D01*
X170476478Y-78184070D01*
G37*
G36*
X189526478Y-78184070D02*
G01*
X189799940Y-78246486D01*
X190064695Y-78339128D01*
X190317412Y-78460830D01*
X190554913Y-78610062D01*
X190774213Y-78784948D01*
X190972552Y-78983287D01*
X191147438Y-79202587D01*
X191296670Y-79440088D01*
X191418372Y-79692805D01*
X191511014Y-79957560D01*
X191573430Y-80231022D01*
X191604835Y-80509753D01*
X191604835Y-80790247D01*
X191573430Y-81068978D01*
X191511014Y-81342440D01*
X191418372Y-81607195D01*
X191296670Y-81859912D01*
X191147438Y-82097413D01*
X190972552Y-82316713D01*
X190774213Y-82515052D01*
X190554913Y-82689938D01*
X190317412Y-82839170D01*
X190064695Y-82960872D01*
X189799940Y-83053514D01*
X189526478Y-83115930D01*
X189247747Y-83147335D01*
X188967253Y-83147335D01*
X188688522Y-83115930D01*
X188415060Y-83053514D01*
X188150305Y-82960872D01*
X187897588Y-82839170D01*
X187660087Y-82689938D01*
X187440787Y-82515052D01*
X187242448Y-82316713D01*
X187067562Y-82097413D01*
X186918330Y-81859912D01*
X186796628Y-81607195D01*
X186703986Y-81342440D01*
X186641570Y-81068978D01*
X186610165Y-80790247D01*
X186610165Y-80509753D01*
X186641570Y-80231022D01*
X186703986Y-79957560D01*
X186796628Y-79692805D01*
X186918330Y-79440088D01*
X187067562Y-79202587D01*
X187242448Y-78983287D01*
X187440787Y-78784948D01*
X187660087Y-78610062D01*
X187897588Y-78460830D01*
X188150305Y-78339128D01*
X188415060Y-78246486D01*
X188688522Y-78184070D01*
X188967253Y-78152665D01*
X189247747Y-78152665D01*
X189526478Y-78184070D01*
G37*
G36*
X126733639Y-79739691D02*
G01*
X126905926Y-79811055D01*
X127060979Y-79914658D01*
X127192842Y-80046521D01*
X127296445Y-80201574D01*
X127367809Y-80373861D01*
X127404189Y-80556759D01*
X127404189Y-80743241D01*
X127367809Y-80926139D01*
X127296445Y-81098426D01*
X127192842Y-81253479D01*
X127060979Y-81385342D01*
X126905926Y-81488945D01*
X126733639Y-81560309D01*
X126550741Y-81596689D01*
X126364259Y-81596689D01*
X126181361Y-81560309D01*
X126009074Y-81488945D01*
X125854021Y-81385342D01*
X125722158Y-81253479D01*
X125618555Y-81098426D01*
X125547191Y-80926139D01*
X125510811Y-80743241D01*
X125510811Y-80556759D01*
X125547191Y-80373861D01*
X125618555Y-80201574D01*
X125722158Y-80046521D01*
X125854021Y-79914658D01*
X126009074Y-79811055D01*
X126181361Y-79739691D01*
X126364259Y-79703311D01*
X126550741Y-79703311D01*
X126733639Y-79739691D01*
G37*
G36*
X137733639Y-79739691D02*
G01*
X137905926Y-79811055D01*
X138060979Y-79914658D01*
X138192842Y-80046521D01*
X138296445Y-80201574D01*
X138367809Y-80373861D01*
X138404189Y-80556759D01*
X138404189Y-80743241D01*
X138367809Y-80926139D01*
X138296445Y-81098426D01*
X138192842Y-81253479D01*
X138060979Y-81385342D01*
X137905926Y-81488945D01*
X137733639Y-81560309D01*
X137550741Y-81596689D01*
X137364259Y-81596689D01*
X137181361Y-81560309D01*
X137009074Y-81488945D01*
X136854021Y-81385342D01*
X136722158Y-81253479D01*
X136618555Y-81098426D01*
X136547191Y-80926139D01*
X136510811Y-80743241D01*
X136510811Y-80556759D01*
X136547191Y-80373861D01*
X136618555Y-80201574D01*
X136722158Y-80046521D01*
X136854021Y-79914658D01*
X137009074Y-79811055D01*
X137181361Y-79739691D01*
X137364259Y-79703311D01*
X137550741Y-79703311D01*
X137733639Y-79739691D01*
G37*
G36*
X145783639Y-79739691D02*
G01*
X145955926Y-79811055D01*
X146110979Y-79914658D01*
X146242842Y-80046521D01*
X146346445Y-80201574D01*
X146417809Y-80373861D01*
X146454189Y-80556759D01*
X146454189Y-80743241D01*
X146417809Y-80926139D01*
X146346445Y-81098426D01*
X146242842Y-81253479D01*
X146110979Y-81385342D01*
X145955926Y-81488945D01*
X145783639Y-81560309D01*
X145600741Y-81596689D01*
X145414259Y-81596689D01*
X145231361Y-81560309D01*
X145059074Y-81488945D01*
X144904021Y-81385342D01*
X144772158Y-81253479D01*
X144668555Y-81098426D01*
X144597191Y-80926139D01*
X144560811Y-80743241D01*
X144560811Y-80556759D01*
X144597191Y-80373861D01*
X144668555Y-80201574D01*
X144772158Y-80046521D01*
X144904021Y-79914658D01*
X145059074Y-79811055D01*
X145231361Y-79739691D01*
X145414259Y-79703311D01*
X145600741Y-79703311D01*
X145783639Y-79739691D01*
G37*
G36*
X156783639Y-79739691D02*
G01*
X156955926Y-79811055D01*
X157110979Y-79914658D01*
X157242842Y-80046521D01*
X157346445Y-80201574D01*
X157417809Y-80373861D01*
X157454189Y-80556759D01*
X157454189Y-80743241D01*
X157417809Y-80926139D01*
X157346445Y-81098426D01*
X157242842Y-81253479D01*
X157110979Y-81385342D01*
X156955926Y-81488945D01*
X156783639Y-81560309D01*
X156600741Y-81596689D01*
X156414259Y-81596689D01*
X156231361Y-81560309D01*
X156059074Y-81488945D01*
X155904021Y-81385342D01*
X155772158Y-81253479D01*
X155668555Y-81098426D01*
X155597191Y-80926139D01*
X155560811Y-80743241D01*
X155560811Y-80556759D01*
X155597191Y-80373861D01*
X155668555Y-80201574D01*
X155772158Y-80046521D01*
X155904021Y-79914658D01*
X156059074Y-79811055D01*
X156231361Y-79739691D01*
X156414259Y-79703311D01*
X156600741Y-79703311D01*
X156783639Y-79739691D01*
G37*
G36*
X164833639Y-79739691D02*
G01*
X165005926Y-79811055D01*
X165160979Y-79914658D01*
X165292842Y-80046521D01*
X165396445Y-80201574D01*
X165467809Y-80373861D01*
X165504189Y-80556759D01*
X165504189Y-80743241D01*
X165467809Y-80926139D01*
X165396445Y-81098426D01*
X165292842Y-81253479D01*
X165160979Y-81385342D01*
X165005926Y-81488945D01*
X164833639Y-81560309D01*
X164650741Y-81596689D01*
X164464259Y-81596689D01*
X164281361Y-81560309D01*
X164109074Y-81488945D01*
X163954021Y-81385342D01*
X163822158Y-81253479D01*
X163718555Y-81098426D01*
X163647191Y-80926139D01*
X163610811Y-80743241D01*
X163610811Y-80556759D01*
X163647191Y-80373861D01*
X163718555Y-80201574D01*
X163822158Y-80046521D01*
X163954021Y-79914658D01*
X164109074Y-79811055D01*
X164281361Y-79739691D01*
X164464259Y-79703311D01*
X164650741Y-79703311D01*
X164833639Y-79739691D01*
G37*
G36*
X175833639Y-79739691D02*
G01*
X176005926Y-79811055D01*
X176160979Y-79914658D01*
X176292842Y-80046521D01*
X176396445Y-80201574D01*
X176467809Y-80373861D01*
X176504189Y-80556759D01*
X176504189Y-80743241D01*
X176467809Y-80926139D01*
X176396445Y-81098426D01*
X176292842Y-81253479D01*
X176160979Y-81385342D01*
X176005926Y-81488945D01*
X175833639Y-81560309D01*
X175650741Y-81596689D01*
X175464259Y-81596689D01*
X175281361Y-81560309D01*
X175109074Y-81488945D01*
X174954021Y-81385342D01*
X174822158Y-81253479D01*
X174718555Y-81098426D01*
X174647191Y-80926139D01*
X174610811Y-80743241D01*
X174610811Y-80556759D01*
X174647191Y-80373861D01*
X174718555Y-80201574D01*
X174822158Y-80046521D01*
X174954021Y-79914658D01*
X175109074Y-79811055D01*
X175281361Y-79739691D01*
X175464259Y-79703311D01*
X175650741Y-79703311D01*
X175833639Y-79739691D01*
G37*
G36*
X183883639Y-79739691D02*
G01*
X184055926Y-79811055D01*
X184210979Y-79914658D01*
X184342842Y-80046521D01*
X184446445Y-80201574D01*
X184517809Y-80373861D01*
X184554189Y-80556759D01*
X184554189Y-80743241D01*
X184517809Y-80926139D01*
X184446445Y-81098426D01*
X184342842Y-81253479D01*
X184210979Y-81385342D01*
X184055926Y-81488945D01*
X183883639Y-81560309D01*
X183700741Y-81596689D01*
X183514259Y-81596689D01*
X183331361Y-81560309D01*
X183159074Y-81488945D01*
X183004021Y-81385342D01*
X182872158Y-81253479D01*
X182768555Y-81098426D01*
X182697191Y-80926139D01*
X182660811Y-80743241D01*
X182660811Y-80556759D01*
X182697191Y-80373861D01*
X182768555Y-80201574D01*
X182872158Y-80046521D01*
X183004021Y-79914658D01*
X183159074Y-79811055D01*
X183331361Y-79739691D01*
X183514259Y-79703311D01*
X183700741Y-79703311D01*
X183883639Y-79739691D01*
G37*
G36*
X194883639Y-79739691D02*
G01*
X195055926Y-79811055D01*
X195210979Y-79914658D01*
X195342842Y-80046521D01*
X195446445Y-80201574D01*
X195517809Y-80373861D01*
X195554189Y-80556759D01*
X195554189Y-80743241D01*
X195517809Y-80926139D01*
X195446445Y-81098426D01*
X195342842Y-81253479D01*
X195210979Y-81385342D01*
X195055926Y-81488945D01*
X194883639Y-81560309D01*
X194700741Y-81596689D01*
X194514259Y-81596689D01*
X194331361Y-81560309D01*
X194159074Y-81488945D01*
X194004021Y-81385342D01*
X193872158Y-81253479D01*
X193768555Y-81098426D01*
X193697191Y-80926139D01*
X193660811Y-80743241D01*
X193660811Y-80556759D01*
X193697191Y-80373861D01*
X193768555Y-80201574D01*
X193872158Y-80046521D01*
X194004021Y-79914658D01*
X194159074Y-79811055D01*
X194331361Y-79739691D01*
X194514259Y-79703311D01*
X194700741Y-79703311D01*
X194883639Y-79739691D01*
G37*
G36*
X160789586Y-70054158D02*
G01*
X160953938Y-70107559D01*
X161107912Y-70186013D01*
X161247718Y-70287588D01*
X161369912Y-70409782D01*
X161471487Y-70549588D01*
X161549941Y-70703562D01*
X161603342Y-70867914D01*
X161630375Y-71038595D01*
X161630375Y-71211405D01*
X161603342Y-71382086D01*
X161549941Y-71546438D01*
X161471487Y-71700412D01*
X161369912Y-71840218D01*
X161247718Y-71962412D01*
X161107912Y-72063987D01*
X160953938Y-72142441D01*
X160789586Y-72195842D01*
X160618905Y-72222875D01*
X160446095Y-72222875D01*
X160275414Y-72195842D01*
X160111062Y-72142441D01*
X159957088Y-72063987D01*
X159817282Y-71962412D01*
X159695088Y-71840218D01*
X159593513Y-71700412D01*
X159515059Y-71546438D01*
X159461658Y-71382086D01*
X159434625Y-71211405D01*
X159434625Y-71038595D01*
X159461658Y-70867914D01*
X159515059Y-70703562D01*
X159593513Y-70549588D01*
X159695088Y-70409782D01*
X159817282Y-70287588D01*
X159957088Y-70186013D01*
X160111062Y-70107559D01*
X160275414Y-70054158D01*
X160446095Y-70027125D01*
X160618905Y-70027125D01*
X160789586Y-70054158D01*
G37*
G36*
X132307965Y-66040210D02*
G01*
X132532011Y-66113007D01*
X132741911Y-66219957D01*
X132932497Y-66358425D01*
X133099075Y-66525003D01*
X133237543Y-66715589D01*
X133344493Y-66925489D01*
X133417290Y-67149535D01*
X133454142Y-67382212D01*
X133454142Y-67617788D01*
X133417290Y-67850465D01*
X133344493Y-68074511D01*
X133237543Y-68284411D01*
X133099075Y-68474997D01*
X132932497Y-68641575D01*
X132741911Y-68780043D01*
X132532011Y-68886993D01*
X132307965Y-68959790D01*
X132075288Y-68996642D01*
X131839712Y-68996642D01*
X131607035Y-68959790D01*
X131382989Y-68886993D01*
X131173089Y-68780043D01*
X130982503Y-68641575D01*
X130815925Y-68474997D01*
X130677457Y-68284411D01*
X130570507Y-68074511D01*
X130497710Y-67850465D01*
X130460858Y-67617788D01*
X130460858Y-67382212D01*
X130497710Y-67149535D01*
X130570507Y-66925489D01*
X130677457Y-66715589D01*
X130815925Y-66525003D01*
X130982503Y-66358425D01*
X131173089Y-66219957D01*
X131382989Y-66113007D01*
X131607035Y-66040210D01*
X131839712Y-66003358D01*
X132075288Y-66003358D01*
X132307965Y-66040210D01*
G37*
G36*
X151357965Y-66040210D02*
G01*
X151582011Y-66113007D01*
X151791911Y-66219957D01*
X151982497Y-66358425D01*
X152149075Y-66525003D01*
X152287543Y-66715589D01*
X152394493Y-66925489D01*
X152467290Y-67149535D01*
X152504142Y-67382212D01*
X152504142Y-67617788D01*
X152467290Y-67850465D01*
X152394493Y-68074511D01*
X152287543Y-68284411D01*
X152149075Y-68474997D01*
X151982497Y-68641575D01*
X151791911Y-68780043D01*
X151582011Y-68886993D01*
X151357965Y-68959790D01*
X151125288Y-68996642D01*
X150889712Y-68996642D01*
X150657035Y-68959790D01*
X150432989Y-68886993D01*
X150223089Y-68780043D01*
X150032503Y-68641575D01*
X149865925Y-68474997D01*
X149727457Y-68284411D01*
X149620507Y-68074511D01*
X149547710Y-67850465D01*
X149510858Y-67617788D01*
X149510858Y-67382212D01*
X149547710Y-67149535D01*
X149620507Y-66925489D01*
X149727457Y-66715589D01*
X149865925Y-66525003D01*
X150032503Y-66358425D01*
X150223089Y-66219957D01*
X150432989Y-66113007D01*
X150657035Y-66040210D01*
X150889712Y-66003358D01*
X151125288Y-66003358D01*
X151357965Y-66040210D01*
G37*
G36*
X170407965Y-66040210D02*
G01*
X170632011Y-66113007D01*
X170841911Y-66219957D01*
X171032497Y-66358425D01*
X171199075Y-66525003D01*
X171337543Y-66715589D01*
X171444493Y-66925489D01*
X171517290Y-67149535D01*
X171554142Y-67382212D01*
X171554142Y-67617788D01*
X171517290Y-67850465D01*
X171444493Y-68074511D01*
X171337543Y-68284411D01*
X171199075Y-68474997D01*
X171032497Y-68641575D01*
X170841911Y-68780043D01*
X170632011Y-68886993D01*
X170407965Y-68959790D01*
X170175288Y-68996642D01*
X169939712Y-68996642D01*
X169707035Y-68959790D01*
X169482989Y-68886993D01*
X169273089Y-68780043D01*
X169082503Y-68641575D01*
X168915925Y-68474997D01*
X168777457Y-68284411D01*
X168670507Y-68074511D01*
X168597710Y-67850465D01*
X168560858Y-67617788D01*
X168560858Y-67382212D01*
X168597710Y-67149535D01*
X168670507Y-66925489D01*
X168777457Y-66715589D01*
X168915925Y-66525003D01*
X169082503Y-66358425D01*
X169273089Y-66219957D01*
X169482989Y-66113007D01*
X169707035Y-66040210D01*
X169939712Y-66003358D01*
X170175288Y-66003358D01*
X170407965Y-66040210D01*
G37*
G36*
X189457965Y-66040210D02*
G01*
X189682011Y-66113007D01*
X189891911Y-66219957D01*
X190082497Y-66358425D01*
X190249075Y-66525003D01*
X190387543Y-66715589D01*
X190494493Y-66925489D01*
X190567290Y-67149535D01*
X190604142Y-67382212D01*
X190604142Y-67617788D01*
X190567290Y-67850465D01*
X190494493Y-68074511D01*
X190387543Y-68284411D01*
X190249075Y-68474997D01*
X190082497Y-68641575D01*
X189891911Y-68780043D01*
X189682011Y-68886993D01*
X189457965Y-68959790D01*
X189225288Y-68996642D01*
X188989712Y-68996642D01*
X188757035Y-68959790D01*
X188532989Y-68886993D01*
X188323089Y-68780043D01*
X188132503Y-68641575D01*
X187965925Y-68474997D01*
X187827457Y-68284411D01*
X187720507Y-68074511D01*
X187647710Y-67850465D01*
X187610858Y-67617788D01*
X187610858Y-67382212D01*
X187647710Y-67149535D01*
X187720507Y-66925489D01*
X187827457Y-66715589D01*
X187965925Y-66525003D01*
X188132503Y-66358425D01*
X188323089Y-66219957D01*
X188532989Y-66113007D01*
X188757035Y-66040210D01*
X188989712Y-66003358D01*
X189225288Y-66003358D01*
X189457965Y-66040210D01*
G37*
G36*
X127307965Y-63840210D02*
G01*
X127532011Y-63913007D01*
X127741911Y-64019957D01*
X127932497Y-64158425D01*
X128099075Y-64325003D01*
X128237543Y-64515589D01*
X128344493Y-64725489D01*
X128417290Y-64949535D01*
X128454142Y-65182212D01*
X128454142Y-65417788D01*
X128417290Y-65650465D01*
X128344493Y-65874511D01*
X128237543Y-66084411D01*
X128099075Y-66274997D01*
X127932497Y-66441575D01*
X127741911Y-66580043D01*
X127532011Y-66686993D01*
X127307965Y-66759790D01*
X127075288Y-66796642D01*
X126839712Y-66796642D01*
X126607035Y-66759790D01*
X126382989Y-66686993D01*
X126173089Y-66580043D01*
X125982503Y-66441575D01*
X125815925Y-66274997D01*
X125677457Y-66084411D01*
X125570507Y-65874511D01*
X125497710Y-65650465D01*
X125460858Y-65417788D01*
X125460858Y-65182212D01*
X125497710Y-64949535D01*
X125570507Y-64725489D01*
X125677457Y-64515589D01*
X125815925Y-64325003D01*
X125982503Y-64158425D01*
X126173089Y-64019957D01*
X126382989Y-63913007D01*
X126607035Y-63840210D01*
X126839712Y-63803358D01*
X127075288Y-63803358D01*
X127307965Y-63840210D01*
G37*
G36*
X146357965Y-63840210D02*
G01*
X146582011Y-63913007D01*
X146791911Y-64019957D01*
X146982497Y-64158425D01*
X147149075Y-64325003D01*
X147287543Y-64515589D01*
X147394493Y-64725489D01*
X147467290Y-64949535D01*
X147504142Y-65182212D01*
X147504142Y-65417788D01*
X147467290Y-65650465D01*
X147394493Y-65874511D01*
X147287543Y-66084411D01*
X147149075Y-66274997D01*
X146982497Y-66441575D01*
X146791911Y-66580043D01*
X146582011Y-66686993D01*
X146357965Y-66759790D01*
X146125288Y-66796642D01*
X145889712Y-66796642D01*
X145657035Y-66759790D01*
X145432989Y-66686993D01*
X145223089Y-66580043D01*
X145032503Y-66441575D01*
X144865925Y-66274997D01*
X144727457Y-66084411D01*
X144620507Y-65874511D01*
X144547710Y-65650465D01*
X144510858Y-65417788D01*
X144510858Y-65182212D01*
X144547710Y-64949535D01*
X144620507Y-64725489D01*
X144727457Y-64515589D01*
X144865925Y-64325003D01*
X145032503Y-64158425D01*
X145223089Y-64019957D01*
X145432989Y-63913007D01*
X145657035Y-63840210D01*
X145889712Y-63803358D01*
X146125288Y-63803358D01*
X146357965Y-63840210D01*
G37*
G36*
X165407965Y-63840210D02*
G01*
X165632011Y-63913007D01*
X165841911Y-64019957D01*
X166032497Y-64158425D01*
X166199075Y-64325003D01*
X166337543Y-64515589D01*
X166444493Y-64725489D01*
X166517290Y-64949535D01*
X166554142Y-65182212D01*
X166554142Y-65417788D01*
X166517290Y-65650465D01*
X166444493Y-65874511D01*
X166337543Y-66084411D01*
X166199075Y-66274997D01*
X166032497Y-66441575D01*
X165841911Y-66580043D01*
X165632011Y-66686993D01*
X165407965Y-66759790D01*
X165175288Y-66796642D01*
X164939712Y-66796642D01*
X164707035Y-66759790D01*
X164482989Y-66686993D01*
X164273089Y-66580043D01*
X164082503Y-66441575D01*
X163915925Y-66274997D01*
X163777457Y-66084411D01*
X163670507Y-65874511D01*
X163597710Y-65650465D01*
X163560858Y-65417788D01*
X163560858Y-65182212D01*
X163597710Y-64949535D01*
X163670507Y-64725489D01*
X163777457Y-64515589D01*
X163915925Y-64325003D01*
X164082503Y-64158425D01*
X164273089Y-64019957D01*
X164482989Y-63913007D01*
X164707035Y-63840210D01*
X164939712Y-63803358D01*
X165175288Y-63803358D01*
X165407965Y-63840210D01*
G37*
G36*
X184457965Y-63840210D02*
G01*
X184682011Y-63913007D01*
X184891911Y-64019957D01*
X185082497Y-64158425D01*
X185249075Y-64325003D01*
X185387543Y-64515589D01*
X185494493Y-64725489D01*
X185567290Y-64949535D01*
X185604142Y-65182212D01*
X185604142Y-65417788D01*
X185567290Y-65650465D01*
X185494493Y-65874511D01*
X185387543Y-66084411D01*
X185249075Y-66274997D01*
X185082497Y-66441575D01*
X184891911Y-66580043D01*
X184682011Y-66686993D01*
X184457965Y-66759790D01*
X184225288Y-66796642D01*
X183989712Y-66796642D01*
X183757035Y-66759790D01*
X183532989Y-66686993D01*
X183323089Y-66580043D01*
X183132503Y-66441575D01*
X182965925Y-66274997D01*
X182827457Y-66084411D01*
X182720507Y-65874511D01*
X182647710Y-65650465D01*
X182610858Y-65417788D01*
X182610858Y-65182212D01*
X182647710Y-64949535D01*
X182720507Y-64725489D01*
X182827457Y-64515589D01*
X182965925Y-64325003D01*
X183132503Y-64158425D01*
X183323089Y-64019957D01*
X183532989Y-63913007D01*
X183757035Y-63840210D01*
X183989712Y-63803358D01*
X184225288Y-63803358D01*
X184457965Y-63840210D01*
G37*
G36*
X132376478Y-59134070D02*
G01*
X132649940Y-59196486D01*
X132914695Y-59289128D01*
X133167412Y-59410830D01*
X133404913Y-59560062D01*
X133624213Y-59734948D01*
X133822552Y-59933287D01*
X133997438Y-60152587D01*
X134146670Y-60390088D01*
X134268372Y-60642805D01*
X134361014Y-60907560D01*
X134423430Y-61181022D01*
X134454835Y-61459753D01*
X134454835Y-61740247D01*
X134423430Y-62018978D01*
X134361014Y-62292440D01*
X134268372Y-62557195D01*
X134146670Y-62809912D01*
X133997438Y-63047413D01*
X133822552Y-63266713D01*
X133624213Y-63465052D01*
X133404913Y-63639938D01*
X133167412Y-63789170D01*
X132914695Y-63910872D01*
X132649940Y-64003514D01*
X132376478Y-64065930D01*
X132097747Y-64097335D01*
X131817253Y-64097335D01*
X131538522Y-64065930D01*
X131265060Y-64003514D01*
X131000305Y-63910872D01*
X130747588Y-63789170D01*
X130510087Y-63639938D01*
X130290787Y-63465052D01*
X130092448Y-63266713D01*
X129917562Y-63047413D01*
X129768330Y-62809912D01*
X129646628Y-62557195D01*
X129553986Y-62292440D01*
X129491570Y-62018978D01*
X129460165Y-61740247D01*
X129460165Y-61459753D01*
X129491570Y-61181022D01*
X129553986Y-60907560D01*
X129646628Y-60642805D01*
X129768330Y-60390088D01*
X129917562Y-60152587D01*
X130092448Y-59933287D01*
X130290787Y-59734948D01*
X130510087Y-59560062D01*
X130747588Y-59410830D01*
X131000305Y-59289128D01*
X131265060Y-59196486D01*
X131538522Y-59134070D01*
X131817253Y-59102665D01*
X132097747Y-59102665D01*
X132376478Y-59134070D01*
G37*
G36*
X151426478Y-59134070D02*
G01*
X151699940Y-59196486D01*
X151964695Y-59289128D01*
X152217412Y-59410830D01*
X152454913Y-59560062D01*
X152674213Y-59734948D01*
X152872552Y-59933287D01*
X153047438Y-60152587D01*
X153196670Y-60390088D01*
X153318372Y-60642805D01*
X153411014Y-60907560D01*
X153473430Y-61181022D01*
X153504835Y-61459753D01*
X153504835Y-61740247D01*
X153473430Y-62018978D01*
X153411014Y-62292440D01*
X153318372Y-62557195D01*
X153196670Y-62809912D01*
X153047438Y-63047413D01*
X152872552Y-63266713D01*
X152674213Y-63465052D01*
X152454913Y-63639938D01*
X152217412Y-63789170D01*
X151964695Y-63910872D01*
X151699940Y-64003514D01*
X151426478Y-64065930D01*
X151147747Y-64097335D01*
X150867253Y-64097335D01*
X150588522Y-64065930D01*
X150315060Y-64003514D01*
X150050305Y-63910872D01*
X149797588Y-63789170D01*
X149560087Y-63639938D01*
X149340787Y-63465052D01*
X149142448Y-63266713D01*
X148967562Y-63047413D01*
X148818330Y-62809912D01*
X148696628Y-62557195D01*
X148603986Y-62292440D01*
X148541570Y-62018978D01*
X148510165Y-61740247D01*
X148510165Y-61459753D01*
X148541570Y-61181022D01*
X148603986Y-60907560D01*
X148696628Y-60642805D01*
X148818330Y-60390088D01*
X148967562Y-60152587D01*
X149142448Y-59933287D01*
X149340787Y-59734948D01*
X149560087Y-59560062D01*
X149797588Y-59410830D01*
X150050305Y-59289128D01*
X150315060Y-59196486D01*
X150588522Y-59134070D01*
X150867253Y-59102665D01*
X151147747Y-59102665D01*
X151426478Y-59134070D01*
G37*
G36*
X170476478Y-59134070D02*
G01*
X170749940Y-59196486D01*
X171014695Y-59289128D01*
X171267412Y-59410830D01*
X171504913Y-59560062D01*
X171724213Y-59734948D01*
X171922552Y-59933287D01*
X172097438Y-60152587D01*
X172246670Y-60390088D01*
X172368372Y-60642805D01*
X172461014Y-60907560D01*
X172523430Y-61181022D01*
X172554835Y-61459753D01*
X172554835Y-61740247D01*
X172523430Y-62018978D01*
X172461014Y-62292440D01*
X172368372Y-62557195D01*
X172246670Y-62809912D01*
X172097438Y-63047413D01*
X171922552Y-63266713D01*
X171724213Y-63465052D01*
X171504913Y-63639938D01*
X171267412Y-63789170D01*
X171014695Y-63910872D01*
X170749940Y-64003514D01*
X170476478Y-64065930D01*
X170197747Y-64097335D01*
X169917253Y-64097335D01*
X169638522Y-64065930D01*
X169365060Y-64003514D01*
X169100305Y-63910872D01*
X168847588Y-63789170D01*
X168610087Y-63639938D01*
X168390787Y-63465052D01*
X168192448Y-63266713D01*
X168017562Y-63047413D01*
X167868330Y-62809912D01*
X167746628Y-62557195D01*
X167653986Y-62292440D01*
X167591570Y-62018978D01*
X167560165Y-61740247D01*
X167560165Y-61459753D01*
X167591570Y-61181022D01*
X167653986Y-60907560D01*
X167746628Y-60642805D01*
X167868330Y-60390088D01*
X168017562Y-60152587D01*
X168192448Y-59933287D01*
X168390787Y-59734948D01*
X168610087Y-59560062D01*
X168847588Y-59410830D01*
X169100305Y-59289128D01*
X169365060Y-59196486D01*
X169638522Y-59134070D01*
X169917253Y-59102665D01*
X170197747Y-59102665D01*
X170476478Y-59134070D01*
G37*
G36*
X189526478Y-59134070D02*
G01*
X189799940Y-59196486D01*
X190064695Y-59289128D01*
X190317412Y-59410830D01*
X190554913Y-59560062D01*
X190774213Y-59734948D01*
X190972552Y-59933287D01*
X191147438Y-60152587D01*
X191296670Y-60390088D01*
X191418372Y-60642805D01*
X191511014Y-60907560D01*
X191573430Y-61181022D01*
X191604835Y-61459753D01*
X191604835Y-61740247D01*
X191573430Y-62018978D01*
X191511014Y-62292440D01*
X191418372Y-62557195D01*
X191296670Y-62809912D01*
X191147438Y-63047413D01*
X190972552Y-63266713D01*
X190774213Y-63465052D01*
X190554913Y-63639938D01*
X190317412Y-63789170D01*
X190064695Y-63910872D01*
X189799940Y-64003514D01*
X189526478Y-64065930D01*
X189247747Y-64097335D01*
X188967253Y-64097335D01*
X188688522Y-64065930D01*
X188415060Y-64003514D01*
X188150305Y-63910872D01*
X187897588Y-63789170D01*
X187660087Y-63639938D01*
X187440787Y-63465052D01*
X187242448Y-63266713D01*
X187067562Y-63047413D01*
X186918330Y-62809912D01*
X186796628Y-62557195D01*
X186703986Y-62292440D01*
X186641570Y-62018978D01*
X186610165Y-61740247D01*
X186610165Y-61459753D01*
X186641570Y-61181022D01*
X186703986Y-60907560D01*
X186796628Y-60642805D01*
X186918330Y-60390088D01*
X187067562Y-60152587D01*
X187242448Y-59933287D01*
X187440787Y-59734948D01*
X187660087Y-59560062D01*
X187897588Y-59410830D01*
X188150305Y-59289128D01*
X188415060Y-59196486D01*
X188688522Y-59134070D01*
X188967253Y-59102665D01*
X189247747Y-59102665D01*
X189526478Y-59134070D01*
G37*
G36*
X124886114Y-60156400D02*
G01*
X124890510Y-60158341D01*
X124893814Y-60158776D01*
X124935146Y-60178050D01*
X124983194Y-60199265D01*
X125058235Y-60274306D01*
X125079459Y-60322374D01*
X125098723Y-60363685D01*
X125099157Y-60366987D01*
X125101100Y-60371386D01*
X125108770Y-60437500D01*
X125108770Y-62762500D01*
X125101100Y-62828614D01*
X125099157Y-62833013D01*
X125098723Y-62836314D01*
X125079467Y-62877606D01*
X125058235Y-62925694D01*
X124983194Y-63000735D01*
X124935106Y-63021967D01*
X124893814Y-63041223D01*
X124890513Y-63041657D01*
X124886114Y-63043600D01*
X124820000Y-63051270D01*
X123095000Y-63051270D01*
X123028886Y-63043600D01*
X123024487Y-63041657D01*
X123021185Y-63041223D01*
X122979874Y-63021959D01*
X122931806Y-63000735D01*
X122856765Y-62925694D01*
X122835550Y-62877646D01*
X122816276Y-62836314D01*
X122815841Y-62833010D01*
X122813900Y-62828614D01*
X122806230Y-62762500D01*
X122806230Y-60437500D01*
X122813900Y-60371386D01*
X122815840Y-60366990D01*
X122816276Y-60363685D01*
X122835558Y-60322334D01*
X122856765Y-60274306D01*
X122931806Y-60199265D01*
X122979834Y-60178058D01*
X123021185Y-60158776D01*
X123024490Y-60158340D01*
X123028886Y-60156400D01*
X123095000Y-60148730D01*
X124820000Y-60148730D01*
X124886114Y-60156400D01*
G37*
G36*
X140886114Y-60156400D02*
G01*
X140890510Y-60158341D01*
X140893814Y-60158776D01*
X140935146Y-60178050D01*
X140983194Y-60199265D01*
X141058235Y-60274306D01*
X141079459Y-60322374D01*
X141098723Y-60363685D01*
X141099157Y-60366987D01*
X141101100Y-60371386D01*
X141108770Y-60437500D01*
X141108770Y-62762500D01*
X141101100Y-62828614D01*
X141099157Y-62833013D01*
X141098723Y-62836314D01*
X141079467Y-62877606D01*
X141058235Y-62925694D01*
X140983194Y-63000735D01*
X140935106Y-63021967D01*
X140893814Y-63041223D01*
X140890513Y-63041657D01*
X140886114Y-63043600D01*
X140820000Y-63051270D01*
X139095000Y-63051270D01*
X139028886Y-63043600D01*
X139024487Y-63041657D01*
X139021185Y-63041223D01*
X138979874Y-63021959D01*
X138931806Y-63000735D01*
X138856765Y-62925694D01*
X138835550Y-62877646D01*
X138816276Y-62836314D01*
X138815841Y-62833010D01*
X138813900Y-62828614D01*
X138806230Y-62762500D01*
X138806230Y-60437500D01*
X138813900Y-60371386D01*
X138815840Y-60366990D01*
X138816276Y-60363685D01*
X138835558Y-60322334D01*
X138856765Y-60274306D01*
X138931806Y-60199265D01*
X138979834Y-60178058D01*
X139021185Y-60158776D01*
X139024490Y-60158340D01*
X139028886Y-60156400D01*
X139095000Y-60148730D01*
X140820000Y-60148730D01*
X140886114Y-60156400D01*
G37*
G36*
X126733639Y-60689691D02*
G01*
X126905926Y-60761055D01*
X127060979Y-60864658D01*
X127192842Y-60996521D01*
X127296445Y-61151574D01*
X127367809Y-61323861D01*
X127404189Y-61506759D01*
X127404189Y-61693241D01*
X127367809Y-61876139D01*
X127296445Y-62048426D01*
X127192842Y-62203479D01*
X127060979Y-62335342D01*
X126905926Y-62438945D01*
X126733639Y-62510309D01*
X126550741Y-62546689D01*
X126364259Y-62546689D01*
X126181361Y-62510309D01*
X126009074Y-62438945D01*
X125854021Y-62335342D01*
X125722158Y-62203479D01*
X125618555Y-62048426D01*
X125547191Y-61876139D01*
X125510811Y-61693241D01*
X125510811Y-61506759D01*
X125547191Y-61323861D01*
X125618555Y-61151574D01*
X125722158Y-60996521D01*
X125854021Y-60864658D01*
X126009074Y-60761055D01*
X126181361Y-60689691D01*
X126364259Y-60653311D01*
X126550741Y-60653311D01*
X126733639Y-60689691D01*
G37*
G36*
X137733639Y-60689691D02*
G01*
X137905926Y-60761055D01*
X138060979Y-60864658D01*
X138192842Y-60996521D01*
X138296445Y-61151574D01*
X138367809Y-61323861D01*
X138404189Y-61506759D01*
X138404189Y-61693241D01*
X138367809Y-61876139D01*
X138296445Y-62048426D01*
X138192842Y-62203479D01*
X138060979Y-62335342D01*
X137905926Y-62438945D01*
X137733639Y-62510309D01*
X137550741Y-62546689D01*
X137364259Y-62546689D01*
X137181361Y-62510309D01*
X137009074Y-62438945D01*
X136854021Y-62335342D01*
X136722158Y-62203479D01*
X136618555Y-62048426D01*
X136547191Y-61876139D01*
X136510811Y-61693241D01*
X136510811Y-61506759D01*
X136547191Y-61323861D01*
X136618555Y-61151574D01*
X136722158Y-60996521D01*
X136854021Y-60864658D01*
X137009074Y-60761055D01*
X137181361Y-60689691D01*
X137364259Y-60653311D01*
X137550741Y-60653311D01*
X137733639Y-60689691D01*
G37*
G36*
X145783639Y-60689691D02*
G01*
X145955926Y-60761055D01*
X146110979Y-60864658D01*
X146242842Y-60996521D01*
X146346445Y-61151574D01*
X146417809Y-61323861D01*
X146454189Y-61506759D01*
X146454189Y-61693241D01*
X146417809Y-61876139D01*
X146346445Y-62048426D01*
X146242842Y-62203479D01*
X146110979Y-62335342D01*
X145955926Y-62438945D01*
X145783639Y-62510309D01*
X145600741Y-62546689D01*
X145414259Y-62546689D01*
X145231361Y-62510309D01*
X145059074Y-62438945D01*
X144904021Y-62335342D01*
X144772158Y-62203479D01*
X144668555Y-62048426D01*
X144597191Y-61876139D01*
X144560811Y-61693241D01*
X144560811Y-61506759D01*
X144597191Y-61323861D01*
X144668555Y-61151574D01*
X144772158Y-60996521D01*
X144904021Y-60864658D01*
X145059074Y-60761055D01*
X145231361Y-60689691D01*
X145414259Y-60653311D01*
X145600741Y-60653311D01*
X145783639Y-60689691D01*
G37*
G36*
X156783639Y-60689691D02*
G01*
X156955926Y-60761055D01*
X157110979Y-60864658D01*
X157242842Y-60996521D01*
X157346445Y-61151574D01*
X157417809Y-61323861D01*
X157454189Y-61506759D01*
X157454189Y-61693241D01*
X157417809Y-61876139D01*
X157346445Y-62048426D01*
X157242842Y-62203479D01*
X157110979Y-62335342D01*
X156955926Y-62438945D01*
X156783639Y-62510309D01*
X156600741Y-62546689D01*
X156414259Y-62546689D01*
X156231361Y-62510309D01*
X156059074Y-62438945D01*
X155904021Y-62335342D01*
X155772158Y-62203479D01*
X155668555Y-62048426D01*
X155597191Y-61876139D01*
X155560811Y-61693241D01*
X155560811Y-61506759D01*
X155597191Y-61323861D01*
X155668555Y-61151574D01*
X155772158Y-60996521D01*
X155904021Y-60864658D01*
X156059074Y-60761055D01*
X156231361Y-60689691D01*
X156414259Y-60653311D01*
X156600741Y-60653311D01*
X156783639Y-60689691D01*
G37*
G36*
X164833639Y-60689691D02*
G01*
X165005926Y-60761055D01*
X165160979Y-60864658D01*
X165292842Y-60996521D01*
X165396445Y-61151574D01*
X165467809Y-61323861D01*
X165504189Y-61506759D01*
X165504189Y-61693241D01*
X165467809Y-61876139D01*
X165396445Y-62048426D01*
X165292842Y-62203479D01*
X165160979Y-62335342D01*
X165005926Y-62438945D01*
X164833639Y-62510309D01*
X164650741Y-62546689D01*
X164464259Y-62546689D01*
X164281361Y-62510309D01*
X164109074Y-62438945D01*
X163954021Y-62335342D01*
X163822158Y-62203479D01*
X163718555Y-62048426D01*
X163647191Y-61876139D01*
X163610811Y-61693241D01*
X163610811Y-61506759D01*
X163647191Y-61323861D01*
X163718555Y-61151574D01*
X163822158Y-60996521D01*
X163954021Y-60864658D01*
X164109074Y-60761055D01*
X164281361Y-60689691D01*
X164464259Y-60653311D01*
X164650741Y-60653311D01*
X164833639Y-60689691D01*
G37*
G36*
X175833639Y-60689691D02*
G01*
X176005926Y-60761055D01*
X176160979Y-60864658D01*
X176292842Y-60996521D01*
X176396445Y-61151574D01*
X176467809Y-61323861D01*
X176504189Y-61506759D01*
X176504189Y-61693241D01*
X176467809Y-61876139D01*
X176396445Y-62048426D01*
X176292842Y-62203479D01*
X176160979Y-62335342D01*
X176005926Y-62438945D01*
X175833639Y-62510309D01*
X175650741Y-62546689D01*
X175464259Y-62546689D01*
X175281361Y-62510309D01*
X175109074Y-62438945D01*
X174954021Y-62335342D01*
X174822158Y-62203479D01*
X174718555Y-62048426D01*
X174647191Y-61876139D01*
X174610811Y-61693241D01*
X174610811Y-61506759D01*
X174647191Y-61323861D01*
X174718555Y-61151574D01*
X174822158Y-60996521D01*
X174954021Y-60864658D01*
X175109074Y-60761055D01*
X175281361Y-60689691D01*
X175464259Y-60653311D01*
X175650741Y-60653311D01*
X175833639Y-60689691D01*
G37*
G36*
X183883639Y-60689691D02*
G01*
X184055926Y-60761055D01*
X184210979Y-60864658D01*
X184342842Y-60996521D01*
X184446445Y-61151574D01*
X184517809Y-61323861D01*
X184554189Y-61506759D01*
X184554189Y-61693241D01*
X184517809Y-61876139D01*
X184446445Y-62048426D01*
X184342842Y-62203479D01*
X184210979Y-62335342D01*
X184055926Y-62438945D01*
X183883639Y-62510309D01*
X183700741Y-62546689D01*
X183514259Y-62546689D01*
X183331361Y-62510309D01*
X183159074Y-62438945D01*
X183004021Y-62335342D01*
X182872158Y-62203479D01*
X182768555Y-62048426D01*
X182697191Y-61876139D01*
X182660811Y-61693241D01*
X182660811Y-61506759D01*
X182697191Y-61323861D01*
X182768555Y-61151574D01*
X182872158Y-60996521D01*
X183004021Y-60864658D01*
X183159074Y-60761055D01*
X183331361Y-60689691D01*
X183514259Y-60653311D01*
X183700741Y-60653311D01*
X183883639Y-60689691D01*
G37*
G36*
X194883639Y-60689691D02*
G01*
X195055926Y-60761055D01*
X195210979Y-60864658D01*
X195342842Y-60996521D01*
X195446445Y-61151574D01*
X195517809Y-61323861D01*
X195554189Y-61506759D01*
X195554189Y-61693241D01*
X195517809Y-61876139D01*
X195446445Y-62048426D01*
X195342842Y-62203479D01*
X195210979Y-62335342D01*
X195055926Y-62438945D01*
X194883639Y-62510309D01*
X194700741Y-62546689D01*
X194514259Y-62546689D01*
X194331361Y-62510309D01*
X194159074Y-62438945D01*
X194004021Y-62335342D01*
X193872158Y-62203479D01*
X193768555Y-62048426D01*
X193697191Y-61876139D01*
X193660811Y-61693241D01*
X193660811Y-61506759D01*
X193697191Y-61323861D01*
X193768555Y-61151574D01*
X193872158Y-60996521D01*
X194004021Y-60864658D01*
X194159074Y-60761055D01*
X194331361Y-60689691D01*
X194514259Y-60653311D01*
X194700741Y-60653311D01*
X194883639Y-60689691D01*
G37*
G36*
X131204328Y-48166887D02*
G01*
X131317654Y-48232316D01*
X131410184Y-48324846D01*
X131475613Y-48438172D01*
X131509482Y-48564571D01*
X131513770Y-48630000D01*
X131513770Y-49730000D01*
X131509482Y-49795429D01*
X131475613Y-49921828D01*
X131410184Y-50035154D01*
X131317654Y-50127684D01*
X131204328Y-50193113D01*
X131077929Y-50226982D01*
X130947071Y-50226982D01*
X130820672Y-50193113D01*
X130707346Y-50127684D01*
X130614816Y-50035154D01*
X130549387Y-49921828D01*
X130515518Y-49795429D01*
X130511230Y-49730000D01*
X130511230Y-48630000D01*
X130515518Y-48564571D01*
X130549387Y-48438172D01*
X130614816Y-48324846D01*
X130707346Y-48232316D01*
X130820672Y-48166887D01*
X130947071Y-48133018D01*
X131077929Y-48133018D01*
X131204328Y-48166887D01*
G37*
G36*
X139844328Y-48166887D02*
G01*
X139957654Y-48232316D01*
X140050184Y-48324846D01*
X140115613Y-48438172D01*
X140149482Y-48564571D01*
X140153770Y-48630000D01*
X140153770Y-49730000D01*
X140149482Y-49795429D01*
X140115613Y-49921828D01*
X140050184Y-50035154D01*
X139957654Y-50127684D01*
X139844328Y-50193113D01*
X139717929Y-50226982D01*
X139587071Y-50226982D01*
X139460672Y-50193113D01*
X139347346Y-50127684D01*
X139254816Y-50035154D01*
X139189387Y-49921828D01*
X139155518Y-49795429D01*
X139151230Y-49730000D01*
X139151230Y-48630000D01*
X139155518Y-48564571D01*
X139189387Y-48438172D01*
X139254816Y-48324846D01*
X139347346Y-48232316D01*
X139460672Y-48166887D01*
X139587071Y-48133018D01*
X139717929Y-48133018D01*
X139844328Y-48166887D01*
G37*
G36*
X132567358Y-48378566D02*
G01*
X132641121Y-48421153D01*
X132701347Y-48481379D01*
X132743934Y-48555142D01*
X132765979Y-48637413D01*
X132765979Y-48722587D01*
X132743934Y-48804858D01*
X132701347Y-48878621D01*
X132641121Y-48938847D01*
X132567358Y-48981434D01*
X132485087Y-49003479D01*
X132399913Y-49003479D01*
X132317642Y-48981434D01*
X132243879Y-48938847D01*
X132183653Y-48878621D01*
X132141066Y-48804858D01*
X132119021Y-48722587D01*
X132119021Y-48637413D01*
X132141066Y-48555142D01*
X132183653Y-48481379D01*
X132243879Y-48421153D01*
X132317642Y-48378566D01*
X132399913Y-48356521D01*
X132485087Y-48356521D01*
X132567358Y-48378566D01*
G37*
G36*
X138347358Y-48378566D02*
G01*
X138421121Y-48421153D01*
X138481347Y-48481379D01*
X138523934Y-48555142D01*
X138545979Y-48637413D01*
X138545979Y-48722587D01*
X138523934Y-48804858D01*
X138481347Y-48878621D01*
X138421121Y-48938847D01*
X138347358Y-48981434D01*
X138265087Y-49003479D01*
X138179913Y-49003479D01*
X138097642Y-48981434D01*
X138023879Y-48938847D01*
X137963653Y-48878621D01*
X137921066Y-48804858D01*
X137899021Y-48722587D01*
X137899021Y-48637413D01*
X137921066Y-48555142D01*
X137963653Y-48481379D01*
X138023879Y-48421153D01*
X138097642Y-48378566D01*
X138179913Y-48356521D01*
X138265087Y-48356521D01*
X138347358Y-48378566D01*
G37*
G36*
X184740389Y-47185245D02*
G01*
X184789464Y-47218036D01*
X184822255Y-47267111D01*
X184833770Y-47325000D01*
X184833770Y-48275000D01*
X184822255Y-48332889D01*
X184789464Y-48381964D01*
X184740389Y-48414755D01*
X184682500Y-48426270D01*
X184382500Y-48426270D01*
X184324611Y-48414755D01*
X184275536Y-48381964D01*
X184242745Y-48332889D01*
X184231230Y-48275000D01*
X184231230Y-47325000D01*
X184242745Y-47267111D01*
X184275536Y-47218036D01*
X184324611Y-47185245D01*
X184382500Y-47173730D01*
X184682500Y-47173730D01*
X184740389Y-47185245D01*
G37*
G36*
X185740389Y-47185245D02*
G01*
X185789464Y-47218036D01*
X185822255Y-47267111D01*
X185833770Y-47325000D01*
X185833770Y-48275000D01*
X185822255Y-48332889D01*
X185789464Y-48381964D01*
X185740389Y-48414755D01*
X185682500Y-48426270D01*
X185382500Y-48426270D01*
X185324611Y-48414755D01*
X185275536Y-48381964D01*
X185242745Y-48332889D01*
X185231230Y-48275000D01*
X185231230Y-47325000D01*
X185242745Y-47267111D01*
X185275536Y-47218036D01*
X185324611Y-47185245D01*
X185382500Y-47173730D01*
X185682500Y-47173730D01*
X185740389Y-47185245D01*
G37*
G36*
X186740389Y-47185245D02*
G01*
X186789464Y-47218036D01*
X186822255Y-47267111D01*
X186833770Y-47325000D01*
X186833770Y-48275000D01*
X186822255Y-48332889D01*
X186789464Y-48381964D01*
X186740389Y-48414755D01*
X186682500Y-48426270D01*
X186382500Y-48426270D01*
X186324611Y-48414755D01*
X186275536Y-48381964D01*
X186242745Y-48332889D01*
X186231230Y-48275000D01*
X186231230Y-47325000D01*
X186242745Y-47267111D01*
X186275536Y-47218036D01*
X186324611Y-47185245D01*
X186382500Y-47173730D01*
X186682500Y-47173730D01*
X186740389Y-47185245D01*
G37*
G36*
X187740389Y-47185245D02*
G01*
X187789464Y-47218036D01*
X187822255Y-47267111D01*
X187833770Y-47325000D01*
X187833770Y-48275000D01*
X187822255Y-48332889D01*
X187789464Y-48381964D01*
X187740389Y-48414755D01*
X187682500Y-48426270D01*
X187382500Y-48426270D01*
X187324611Y-48414755D01*
X187275536Y-48381964D01*
X187242745Y-48332889D01*
X187231230Y-48275000D01*
X187231230Y-47325000D01*
X187242745Y-47267111D01*
X187275536Y-47218036D01*
X187324611Y-47185245D01*
X187382500Y-47173730D01*
X187682500Y-47173730D01*
X187740389Y-47185245D01*
G37*
G36*
X188740389Y-47185245D02*
G01*
X188789464Y-47218036D01*
X188822255Y-47267111D01*
X188833770Y-47325000D01*
X188833770Y-48275000D01*
X188822255Y-48332889D01*
X188789464Y-48381964D01*
X188740389Y-48414755D01*
X188682500Y-48426270D01*
X188382500Y-48426270D01*
X188324611Y-48414755D01*
X188275536Y-48381964D01*
X188242745Y-48332889D01*
X188231230Y-48275000D01*
X188231230Y-47325000D01*
X188242745Y-47267111D01*
X188275536Y-47218036D01*
X188324611Y-47185245D01*
X188382500Y-47173730D01*
X188682500Y-47173730D01*
X188740389Y-47185245D01*
G37*
G36*
X128189586Y-45304158D02*
G01*
X128353938Y-45357559D01*
X128507912Y-45436013D01*
X128647718Y-45537588D01*
X128769912Y-45659782D01*
X128871487Y-45799588D01*
X128949941Y-45953562D01*
X129003342Y-46117914D01*
X129030375Y-46288595D01*
X129030375Y-46461405D01*
X129003342Y-46632086D01*
X128949941Y-46796438D01*
X128871487Y-46950412D01*
X128769912Y-47090218D01*
X128647718Y-47212412D01*
X128507912Y-47313987D01*
X128353938Y-47392441D01*
X128189586Y-47445842D01*
X128018905Y-47472875D01*
X127846095Y-47472875D01*
X127675414Y-47445842D01*
X127511062Y-47392441D01*
X127357088Y-47313987D01*
X127217282Y-47212412D01*
X127095088Y-47090218D01*
X126993513Y-46950412D01*
X126915059Y-46796438D01*
X126861658Y-46632086D01*
X126834625Y-46461405D01*
X126834625Y-46288595D01*
X126861658Y-46117914D01*
X126915059Y-45953562D01*
X126993513Y-45799588D01*
X127095088Y-45659782D01*
X127217282Y-45537588D01*
X127357088Y-45436013D01*
X127511062Y-45357559D01*
X127675414Y-45304158D01*
X127846095Y-45277125D01*
X128018905Y-45277125D01*
X128189586Y-45304158D01*
G37*
G36*
X193389586Y-45304158D02*
G01*
X193553938Y-45357559D01*
X193707912Y-45436013D01*
X193847718Y-45537588D01*
X193969912Y-45659782D01*
X194071487Y-45799588D01*
X194149941Y-45953562D01*
X194203342Y-46117914D01*
X194230375Y-46288595D01*
X194230375Y-46461405D01*
X194203342Y-46632086D01*
X194149941Y-46796438D01*
X194071487Y-46950412D01*
X193969912Y-47090218D01*
X193847718Y-47212412D01*
X193707912Y-47313987D01*
X193553938Y-47392441D01*
X193389586Y-47445842D01*
X193218905Y-47472875D01*
X193046095Y-47472875D01*
X192875414Y-47445842D01*
X192711062Y-47392441D01*
X192557088Y-47313987D01*
X192417282Y-47212412D01*
X192295088Y-47090218D01*
X192193513Y-46950412D01*
X192115059Y-46796438D01*
X192061658Y-46632086D01*
X192034625Y-46461405D01*
X192034625Y-46288595D01*
X192061658Y-46117914D01*
X192115059Y-45953562D01*
X192193513Y-45799588D01*
X192295088Y-45659782D01*
X192417282Y-45537588D01*
X192557088Y-45436013D01*
X192711062Y-45357559D01*
X192875414Y-45304158D01*
X193046095Y-45277125D01*
X193218905Y-45277125D01*
X193389586Y-45304158D01*
G37*
G36*
X168186934Y-44020566D02*
G01*
X168187843Y-44022762D01*
X168189076Y-44023008D01*
X168245265Y-44023008D01*
X168247763Y-44023008D01*
X168249386Y-44023222D01*
X168251791Y-44023866D01*
X168251795Y-44023867D01*
X168373059Y-44056359D01*
X168373061Y-44056359D01*
X168375465Y-44057004D01*
X168376977Y-44057630D01*
X168379135Y-44058876D01*
X168455591Y-44103018D01*
X168490016Y-44122893D01*
X168491315Y-44123889D01*
X168583611Y-44216185D01*
X168584607Y-44217484D01*
X168649870Y-44330523D01*
X168650496Y-44332035D01*
X168684278Y-44458114D01*
X168684492Y-44459737D01*
X168684492Y-44462235D01*
X168684492Y-44518423D01*
X168684737Y-44519655D01*
X168686934Y-44520566D01*
X168688770Y-44525000D01*
X168688770Y-45025000D01*
X168686934Y-45029434D01*
X168683608Y-45030810D01*
X168682500Y-45036385D01*
X168682500Y-45313614D01*
X168683608Y-45319189D01*
X168686934Y-45320566D01*
X168688770Y-45325000D01*
X168688770Y-45825000D01*
X168686934Y-45829434D01*
X168684737Y-45830343D01*
X168684492Y-45831576D01*
X168684492Y-45890263D01*
X168684278Y-45891886D01*
X168650496Y-46017965D01*
X168649870Y-46019477D01*
X168584607Y-46132516D01*
X168583611Y-46133815D01*
X168491315Y-46226111D01*
X168490016Y-46227107D01*
X168376977Y-46292370D01*
X168375465Y-46292996D01*
X168249386Y-46326778D01*
X168247763Y-46326992D01*
X168245265Y-46326992D01*
X168189076Y-46326992D01*
X168187843Y-46327237D01*
X168186934Y-46329434D01*
X168182500Y-46331270D01*
X168174921Y-46331270D01*
X167690079Y-46331270D01*
X167682500Y-46331270D01*
X167678066Y-46329434D01*
X167677156Y-46327237D01*
X167675924Y-46326992D01*
X167617237Y-46326992D01*
X167615614Y-46326778D01*
X167489535Y-46292996D01*
X167488023Y-46292370D01*
X167374984Y-46227107D01*
X167373685Y-46226111D01*
X167281389Y-46133815D01*
X167280393Y-46132516D01*
X167271962Y-46117914D01*
X167216376Y-46021635D01*
X167215130Y-46019477D01*
X167214504Y-46017965D01*
X167213859Y-46015559D01*
X167181367Y-45894295D01*
X167181366Y-45894291D01*
X167180722Y-45891886D01*
X167180508Y-45890263D01*
X167180508Y-45831576D01*
X167180262Y-45830343D01*
X167178066Y-45829434D01*
X167176230Y-45825000D01*
X167176230Y-45325000D01*
X167178066Y-45320566D01*
X167181391Y-45319189D01*
X167182500Y-45313614D01*
X167182500Y-45036385D01*
X167181391Y-45030810D01*
X167178066Y-45029434D01*
X167176230Y-45025000D01*
X167176230Y-44525000D01*
X167178066Y-44520566D01*
X167180262Y-44519655D01*
X167180508Y-44518423D01*
X167180508Y-44462235D01*
X167180508Y-44459737D01*
X167180722Y-44458114D01*
X167181366Y-44455709D01*
X167181367Y-44455704D01*
X167213859Y-44334440D01*
X167213860Y-44334435D01*
X167214504Y-44332035D01*
X167215130Y-44330523D01*
X167216376Y-44328364D01*
X167279144Y-44219646D01*
X167279147Y-44219641D01*
X167280393Y-44217484D01*
X167281389Y-44216185D01*
X167283152Y-44214421D01*
X167283156Y-44214417D01*
X167371917Y-44125656D01*
X167371921Y-44125652D01*
X167373685Y-44123889D01*
X167374984Y-44122893D01*
X167377141Y-44121647D01*
X167377146Y-44121644D01*
X167485864Y-44058876D01*
X167485867Y-44058874D01*
X167488023Y-44057630D01*
X167489535Y-44057004D01*
X167491935Y-44056360D01*
X167491940Y-44056359D01*
X167613204Y-44023867D01*
X167613209Y-44023866D01*
X167615614Y-44023222D01*
X167617237Y-44023008D01*
X167675924Y-44023008D01*
X167677156Y-44022762D01*
X167678066Y-44020566D01*
X167682500Y-44018730D01*
X168182500Y-44018730D01*
X168186934Y-44020566D01*
G37*
G36*
X170586934Y-44020566D02*
G01*
X170587843Y-44022762D01*
X170589076Y-44023008D01*
X170645265Y-44023008D01*
X170647763Y-44023008D01*
X170649386Y-44023222D01*
X170651791Y-44023866D01*
X170651795Y-44023867D01*
X170773059Y-44056359D01*
X170773061Y-44056359D01*
X170775465Y-44057004D01*
X170776977Y-44057630D01*
X170779135Y-44058876D01*
X170855591Y-44103018D01*
X170890016Y-44122893D01*
X170891315Y-44123889D01*
X170983611Y-44216185D01*
X170984607Y-44217484D01*
X171049870Y-44330523D01*
X171050496Y-44332035D01*
X171084278Y-44458114D01*
X171084492Y-44459737D01*
X171084492Y-44462235D01*
X171084492Y-44518423D01*
X171084737Y-44519655D01*
X171086934Y-44520566D01*
X171088770Y-44525000D01*
X171088770Y-45025000D01*
X171086934Y-45029434D01*
X171083608Y-45030810D01*
X171082500Y-45036385D01*
X171082500Y-45313614D01*
X171083608Y-45319189D01*
X171086934Y-45320566D01*
X171088770Y-45325000D01*
X171088770Y-45825000D01*
X171086934Y-45829434D01*
X171084737Y-45830343D01*
X171084492Y-45831576D01*
X171084492Y-45890263D01*
X171084278Y-45891886D01*
X171050496Y-46017965D01*
X171049870Y-46019477D01*
X170984607Y-46132516D01*
X170983611Y-46133815D01*
X170891315Y-46226111D01*
X170890016Y-46227107D01*
X170776977Y-46292370D01*
X170775465Y-46292996D01*
X170649386Y-46326778D01*
X170647763Y-46326992D01*
X170645265Y-46326992D01*
X170589076Y-46326992D01*
X170587843Y-46327237D01*
X170586934Y-46329434D01*
X170582500Y-46331270D01*
X170574921Y-46331270D01*
X170090079Y-46331270D01*
X170082500Y-46331270D01*
X170078066Y-46329434D01*
X170077156Y-46327237D01*
X170075924Y-46326992D01*
X170017237Y-46326992D01*
X170015614Y-46326778D01*
X169889535Y-46292996D01*
X169888023Y-46292370D01*
X169774984Y-46227107D01*
X169773685Y-46226111D01*
X169681389Y-46133815D01*
X169680393Y-46132516D01*
X169671962Y-46117914D01*
X169616376Y-46021635D01*
X169615130Y-46019477D01*
X169614504Y-46017965D01*
X169613859Y-46015559D01*
X169581367Y-45894295D01*
X169581366Y-45894291D01*
X169580722Y-45891886D01*
X169580508Y-45890263D01*
X169580508Y-45831576D01*
X169580262Y-45830343D01*
X169578066Y-45829434D01*
X169576230Y-45825000D01*
X169576230Y-45325000D01*
X169578066Y-45320566D01*
X169581391Y-45319189D01*
X169582500Y-45313614D01*
X169582500Y-45036385D01*
X169581391Y-45030810D01*
X169578066Y-45029434D01*
X169576230Y-45025000D01*
X169576230Y-44525000D01*
X169578066Y-44520566D01*
X169580262Y-44519655D01*
X169580508Y-44518423D01*
X169580508Y-44462235D01*
X169580508Y-44459737D01*
X169580722Y-44458114D01*
X169581366Y-44455709D01*
X169581367Y-44455704D01*
X169613859Y-44334440D01*
X169613860Y-44334435D01*
X169614504Y-44332035D01*
X169615130Y-44330523D01*
X169616376Y-44328364D01*
X169679144Y-44219646D01*
X169679147Y-44219641D01*
X169680393Y-44217484D01*
X169681389Y-44216185D01*
X169683152Y-44214421D01*
X169683156Y-44214417D01*
X169771917Y-44125656D01*
X169771921Y-44125652D01*
X169773685Y-44123889D01*
X169774984Y-44122893D01*
X169777141Y-44121647D01*
X169777146Y-44121644D01*
X169885864Y-44058876D01*
X169885867Y-44058874D01*
X169888023Y-44057630D01*
X169889535Y-44057004D01*
X169891935Y-44056360D01*
X169891940Y-44056359D01*
X170013204Y-44023867D01*
X170013209Y-44023866D01*
X170015614Y-44023222D01*
X170017237Y-44023008D01*
X170075924Y-44023008D01*
X170077156Y-44022762D01*
X170078066Y-44020566D01*
X170082500Y-44018730D01*
X170582500Y-44018730D01*
X170586934Y-44020566D01*
G37*
G36*
X131204328Y-44136887D02*
G01*
X131317654Y-44202316D01*
X131410184Y-44294846D01*
X131475613Y-44408172D01*
X131509482Y-44534571D01*
X131513770Y-44600000D01*
X131513770Y-45400000D01*
X131509482Y-45465429D01*
X131475613Y-45591828D01*
X131410184Y-45705154D01*
X131317654Y-45797684D01*
X131204328Y-45863113D01*
X131077929Y-45896982D01*
X130947071Y-45896982D01*
X130820672Y-45863113D01*
X130707346Y-45797684D01*
X130614816Y-45705154D01*
X130549387Y-45591828D01*
X130515518Y-45465429D01*
X130511230Y-45400000D01*
X130511230Y-44600000D01*
X130515518Y-44534571D01*
X130549387Y-44408172D01*
X130614816Y-44294846D01*
X130707346Y-44202316D01*
X130820672Y-44136887D01*
X130947071Y-44103018D01*
X131077929Y-44103018D01*
X131204328Y-44136887D01*
G37*
G36*
X139844328Y-44136887D02*
G01*
X139957654Y-44202316D01*
X140050184Y-44294846D01*
X140115613Y-44408172D01*
X140149482Y-44534571D01*
X140153770Y-44600000D01*
X140153770Y-45400000D01*
X140149482Y-45465429D01*
X140115613Y-45591828D01*
X140050184Y-45705154D01*
X139957654Y-45797684D01*
X139844328Y-45863113D01*
X139717929Y-45896982D01*
X139587071Y-45896982D01*
X139460672Y-45863113D01*
X139347346Y-45797684D01*
X139254816Y-45705154D01*
X139189387Y-45591828D01*
X139155518Y-45465429D01*
X139151230Y-45400000D01*
X139151230Y-44600000D01*
X139155518Y-44534571D01*
X139189387Y-44408172D01*
X139254816Y-44294846D01*
X139347346Y-44202316D01*
X139460672Y-44136887D01*
X139587071Y-44103018D01*
X139717929Y-44103018D01*
X139844328Y-44136887D01*
G37*
G36*
X183394090Y-43840954D02*
G01*
X183467497Y-43890003D01*
X183516546Y-43963410D01*
X183533770Y-44050000D01*
X183533770Y-45300000D01*
X183516546Y-45386590D01*
X183467497Y-45459997D01*
X183394090Y-45509046D01*
X183307500Y-45526270D01*
X182857500Y-45526270D01*
X182770910Y-45509046D01*
X182697503Y-45459997D01*
X182648454Y-45386590D01*
X182631230Y-45300000D01*
X182631230Y-44050000D01*
X182648454Y-43963410D01*
X182697503Y-43890003D01*
X182770910Y-43840954D01*
X182857500Y-43823730D01*
X183307500Y-43823730D01*
X183394090Y-43840954D01*
G37*
G36*
X190294090Y-43840954D02*
G01*
X190367497Y-43890003D01*
X190416546Y-43963410D01*
X190433770Y-44050000D01*
X190433770Y-45300000D01*
X190416546Y-45386590D01*
X190367497Y-45459997D01*
X190294090Y-45509046D01*
X190207500Y-45526270D01*
X189757500Y-45526270D01*
X189670910Y-45509046D01*
X189597503Y-45459997D01*
X189548454Y-45386590D01*
X189531230Y-45300000D01*
X189531230Y-44050000D01*
X189548454Y-43963410D01*
X189597503Y-43890003D01*
X189670910Y-43840954D01*
X189757500Y-43823730D01*
X190207500Y-43823730D01*
X190294090Y-43840954D01*
G37*
M02*
