%TF.GenerationSoftware,KiCad,Pcbnew,7.0.11+dfsg-1build4*%
%TF.CreationDate,2026-10-03T20:35:38+10:00*%
%TF.ProjectId,stroke_text,7374726f-6b65-45f7-9465-78742e6b6963,rev?*%
%TF.SameCoordinates,Original*%
%TF.FileFunction,Legend,Top*%
%TF.FilePolarity,Positive*%
%FSLAX46Y46*%
G04 Gerber Fmt 4.6, Leading zero omitted, Abs format (unit mm)*
G04 Created by KiCad (PCBNEW 7.0.11+dfsg-1build4) date 2026-10-03 20:35:38*
%MOMM*%
%LPD*%
G01*
G04 APERTURE LIST*
%ADD10C,0.250000*%
G04 APERTURE END LIST*
D10*
X14960589Y-13888507D02*
X15393602Y-13638507D01*
X15972036Y-14211813D02*
X15353446Y-14568956D01*
X15353446Y-14568956D02*
X14603446Y-13269918D01*
X14603446Y-13269918D02*
X15222036Y-12912775D01*
X15843190Y-13131502D02*
X16338061Y-12845787D01*
X15778767Y-12591346D02*
X16421624Y-13704807D01*
X16421624Y-13704807D02*
X16554911Y-13792811D01*
X16554911Y-13792811D02*
X16714344Y-13783241D01*
X16714344Y-13783241D02*
X16838061Y-13711813D01*
X17792091Y-13078525D02*
X17704087Y-13211813D01*
X17704087Y-13211813D02*
X17456651Y-13354670D01*
X17456651Y-13354670D02*
X17297219Y-13364239D01*
X17297219Y-13364239D02*
X17199646Y-13338095D01*
X17199646Y-13338095D02*
X17066358Y-13250091D01*
X17066358Y-13250091D02*
X16852072Y-12878937D01*
X16852072Y-12878937D02*
X16842503Y-12719505D01*
X16842503Y-12719505D02*
X16868648Y-12621932D01*
X16868648Y-12621932D02*
X16956651Y-12488644D01*
X16956651Y-12488644D02*
X17204087Y-12345787D01*
X17204087Y-12345787D02*
X17363519Y-12336218D01*
X18384535Y-12818956D02*
X17634535Y-11519918D01*
X18941266Y-12497527D02*
X18548409Y-11817079D01*
X18548409Y-11817079D02*
X18415121Y-11729075D01*
X18415121Y-11729075D02*
X18255689Y-11738645D01*
X18255689Y-11738645D02*
X18070112Y-11845787D01*
X18070112Y-11845787D02*
X17982109Y-11979075D01*
X17982109Y-11979075D02*
X17955964Y-12076648D01*
X18936138Y-11345787D02*
X19745432Y-12033241D01*
X19554727Y-10988645D02*
X19745432Y-12033241D01*
X19745432Y-12033241D02*
X19800286Y-12413965D01*
X19800286Y-12413965D02*
X19774141Y-12511538D01*
X19774141Y-12511538D02*
X19686138Y-12644825D01*
X20665624Y-9769918D02*
X21531649Y-9269918D01*
X21531649Y-9269918D02*
X21724919Y-10890384D01*
M02*
